<svg xmlns="http://www.w3.org/2000/svg" xmlns:xlink="http://www.w3.org/1999/xlink" width="500" zoomAndPan="magnify" viewBox="0 0 375 374.999991" height="500" preserveAspectRatio="xMidYMid meet" version="1.0"><path fill="#ed0d91" d="M 215.53125 148.226562 C 215.546875 148.25 215.570312 148.28125 215.597656 148.320312 C 215.570312 148.28125 215.546875 148.25 215.53125 148.226562 Z M 250.140625 101.324219 C 244.703125 98.703125 238.171875 100.996094 235.554688 106.445312 L 215.507812 148.191406 C 215.507812 148.191406 215.515625 148.203125 215.53125 148.222656 C 215.515625 148.203125 215.507812 148.191406 215.507812 148.191406 L 204.484375 137.15625 C 190.660156 123.328125 168.1875 123.34375 154.386719 137.195312 C 140.585938 151.046875 140.601562 173.566406 154.425781 187.398438 L 187.5 220.5 C 191.773438 224.773438 198.691406 224.769531 202.957031 220.488281 C 207.222656 216.207031 207.214844 209.273438 202.945312 205 L 169.867188 171.898438 C 164.578125 166.601562 164.570312 157.976562 169.855469 152.671875 C 175.140625 147.367188 183.746094 147.359375 189.039062 152.65625 L 210.957031 174.59375 C 213.460938 177.097656 217.023438 178.234375 220.515625 177.636719 C 224.003906 177.042969 226.992188 174.789062 228.527344 171.59375 L 240.976562 145.667969 L 255.25 115.945312 C 257.867188 110.496094 255.578125 103.949219 250.140625 101.324219 " fill-opacity="1" fill-rule="nonzero"/><path fill="#9b176a" d="M 250.140625 101.324219 C 244.703125 98.703125 238.171875 100.996094 235.554688 106.445312 L 215.507812 148.191406 C 215.507812 148.191406 225.082031 159.496094 234.3125 152.847656 C 236.4375 151.320312 238.671875 149.011719 240.976562 145.667969 L 255.25 115.945312 C 257.867188 110.496094 255.578125 103.949219 250.140625 101.324219 " fill-opacity="1" fill-rule="nonzero"/><path fill="#00adef" d="M 159.289062 226.9375 C 159.273438 226.914062 159.25 226.882812 159.222656 226.84375 C 159.25 226.882812 159.273438 226.914062 159.289062 226.9375 Z M 124.675781 273.835938 C 130.117188 276.460938 136.644531 274.167969 139.265625 268.71875 L 159.3125 226.972656 C 159.3125 226.972656 159.304688 226.964844 159.289062 226.941406 C 159.304688 226.960938 159.3125 226.972656 159.3125 226.972656 L 170.335938 238.007812 C 184.15625 251.835938 206.628906 251.820312 220.429688 237.96875 C 234.230469 224.117188 234.214844 201.597656 220.394531 187.765625 L 187.316406 154.664062 C 183.046875 150.390625 176.128906 150.394531 171.863281 154.675781 C 167.597656 158.957031 167.601562 165.890625 171.875 170.164062 L 204.949219 203.265625 C 210.242188 208.5625 210.25 217.1875 204.964844 222.492188 C 199.679688 227.796875 191.074219 227.804688 185.777344 222.507812 L 163.863281 200.570312 C 161.359375 198.066406 157.792969 196.929688 154.304688 197.527344 C 150.816406 198.121094 147.828125 200.375 146.292969 203.574219 L 133.84375 229.496094 L 119.570312 259.21875 C 116.953125 264.671875 119.238281 271.214844 124.675781 273.835938 " fill-opacity="1" fill-rule="nonzero"/><path fill="#03466e" d="M 124.675781 273.835938 C 130.117188 276.460938 136.644531 274.167969 139.265625 268.71875 L 159.3125 226.972656 C 159.3125 226.972656 149.738281 215.664062 140.507812 222.316406 C 138.382812 223.84375 136.144531 226.152344 133.84375 229.496094 L 119.570312 259.21875 C 116.953125 264.671875 119.238281 271.214844 124.675781 273.835938 " fill-opacity="1" fill-rule="nonzero"/></svg>