<svg xmlns="http://www.w3.org/2000/svg" xmlns:xlink="http://www.w3.org/1999/xlink" width="500" zoomAndPan="magnify" viewBox="0 0 375 374.999991" height="500" preserveAspectRatio="xMidYMid meet" version="1.0"><defs><g/></defs><path fill="#ed0d91" d="M 107.609375 157.285156 C 107.621094 157.300781 107.636719 157.328125 107.660156 157.359375 C 107.636719 157.328125 107.621094 157.300781 107.609375 157.285156 Z M 134.304688 121.265625 C 130.109375 119.253906 125.070312 121.011719 123.054688 125.199219 L 107.589844 157.257812 C 107.589844 157.257812 107.597656 157.265625 107.609375 157.28125 C 107.597656 157.265625 107.589844 157.257812 107.589844 157.257812 L 99.089844 148.785156 C 88.429688 138.164062 71.097656 138.175781 60.453125 148.8125 C 49.808594 159.449219 49.820312 176.746094 60.480469 187.367188 L 85.992188 212.785156 C 89.285156 216.066406 94.621094 216.0625 97.910156 212.777344 C 101.199219 209.488281 101.195312 204.164062 97.902344 200.882812 L 72.390625 175.464844 C 68.308594 171.394531 68.304688 164.773438 72.378906 160.699219 C 76.457031 156.625 83.09375 156.621094 87.175781 160.6875 L 104.082031 177.53125 C 106.011719 179.457031 108.761719 180.328125 111.453125 179.871094 C 114.144531 179.414062 116.449219 177.683594 117.632812 175.226562 L 127.234375 155.320312 L 138.242188 132.496094 C 140.261719 128.308594 138.496094 123.28125 134.304688 121.265625 " fill-opacity="1" fill-rule="nonzero"/><path fill="#9b176a" d="M 134.304688 121.265625 C 130.109375 119.253906 125.070312 121.011719 123.054688 125.199219 L 107.589844 157.257812 C 107.589844 157.257812 114.976562 165.9375 122.09375 160.832031 C 123.734375 159.660156 125.457031 157.886719 127.234375 155.320312 L 138.242188 132.496094 C 140.261719 128.308594 138.496094 123.28125 134.304688 121.265625 " fill-opacity="1" fill-rule="nonzero"/><path fill="#00adef" d="M 64.230469 217.730469 C 64.21875 217.710938 64.203125 217.6875 64.179688 217.65625 C 64.203125 217.6875 64.21875 217.710938 64.230469 217.730469 Z M 37.535156 253.746094 C 41.730469 255.761719 46.765625 254 48.785156 249.816406 L 64.25 217.757812 C 64.25 217.757812 64.242188 217.75 64.230469 217.730469 C 64.242188 217.746094 64.25 217.757812 64.25 217.757812 L 72.75 226.230469 C 83.410156 236.851562 100.742188 236.835938 111.386719 226.199219 C 122.03125 215.5625 122.019531 198.269531 111.359375 187.648438 L 85.847656 162.230469 C 82.554688 158.945312 77.21875 158.949219 73.929688 162.238281 C 70.640625 165.523438 70.644531 170.851562 73.9375 174.132812 L 99.449219 199.550781 C 103.53125 203.617188 103.535156 210.242188 99.460938 214.316406 C 95.382812 218.390625 88.746094 218.394531 84.664062 214.328125 L 67.757812 197.480469 C 65.828125 195.558594 63.078125 194.683594 60.386719 195.144531 C 57.695312 195.601562 55.390625 197.332031 54.207031 199.785156 L 44.605469 219.695312 L 33.597656 242.519531 C 31.578125 246.707031 33.339844 251.730469 37.535156 253.746094 " fill-opacity="1" fill-rule="nonzero"/><path fill="#03466e" d="M 37.535156 253.746094 C 41.730469 255.761719 46.765625 254 48.785156 249.816406 L 64.25 217.757812 C 64.25 217.757812 56.863281 209.074219 49.746094 214.179688 C 48.105469 215.351562 46.382812 217.128906 44.605469 219.695312 L 33.597656 242.519531 C 31.578125 246.707031 33.339844 251.730469 37.535156 253.746094 " fill-opacity="1" fill-rule="nonzero"/><g fill="#ed0d91" fill-opacity="1"><g transform="translate(140.058159, 188.356908)"><g><path d="M 7.109375 0.546875 C 6.003906 0.546875 4.882812 0.410156 3.75 0.140625 C 2.613281 -0.128906 1.664062 -0.488281 0.90625 -0.9375 L 1.046875 -5.015625 L 1.34375 -5.015625 L 2.28125 -3.0625 C 2.5625 -2.5 2.859375 -2.003906 3.171875 -1.578125 C 3.492188 -1.148438 3.9375 -0.8125 4.5 -0.5625 C 4.894531 -0.363281 5.273438 -0.226562 5.640625 -0.15625 C 6.015625 -0.09375 6.4375 -0.0625 6.90625 -0.0625 C 8.125 -0.0625 9.085938 -0.390625 9.796875 -1.046875 C 10.503906 -1.710938 10.859375 -2.5625 10.859375 -3.59375 C 10.859375 -4.570312 10.617188 -5.335938 10.140625 -5.890625 C 9.660156 -6.441406 8.890625 -6.976562 7.828125 -7.5 L 6.59375 -8.046875 C 4.875 -8.804688 3.53125 -9.679688 2.5625 -10.671875 C 1.59375 -11.660156 1.109375 -12.972656 1.109375 -14.609375 C 1.109375 -15.785156 1.410156 -16.800781 2.015625 -17.65625 C 2.628906 -18.519531 3.476562 -19.179688 4.5625 -19.640625 C 5.65625 -20.109375 6.9375 -20.34375 8.40625 -20.34375 C 9.457031 -20.34375 10.457031 -20.203125 11.40625 -19.921875 C 12.363281 -19.640625 13.191406 -19.257812 13.890625 -18.78125 L 13.703125 -15.1875 L 13.40625 -15.1875 L 12.1875 -17.4375 C 11.84375 -18.132812 11.5 -18.625 11.15625 -18.90625 C 10.820312 -19.195312 10.429688 -19.40625 9.984375 -19.53125 C 9.722656 -19.613281 9.484375 -19.664062 9.265625 -19.6875 C 9.046875 -19.71875 8.769531 -19.734375 8.4375 -19.734375 C 7.414062 -19.734375 6.550781 -19.4375 5.84375 -18.84375 C 5.144531 -18.257812 4.796875 -17.46875 4.796875 -16.46875 C 4.796875 -15.445312 5.066406 -14.628906 5.609375 -14.015625 C 6.148438 -13.410156 6.941406 -12.867188 7.984375 -12.390625 L 9.359375 -11.796875 C 11.273438 -10.953125 12.65625 -10.054688 13.5 -9.109375 C 14.34375 -8.160156 14.765625 -6.9375 14.765625 -5.4375 C 14.765625 -3.675781 14.097656 -2.238281 12.765625 -1.125 C 11.429688 -0.0078125 9.546875 0.546875 7.109375 0.546875 Z M 7.109375 0.546875 "/></g></g></g><g fill="#ed0d91" fill-opacity="1"><g transform="translate(155.688143, 188.356908)"><g><path d="M 4.203125 -16.4375 C 3.523438 -16.4375 2.945312 -16.648438 2.46875 -17.078125 C 2 -17.515625 1.765625 -18.0625 1.765625 -18.71875 C 1.765625 -19.394531 2 -19.941406 2.46875 -20.359375 C 2.945312 -20.785156 3.523438 -21 4.203125 -21 C 4.878906 -21 5.445312 -20.785156 5.90625 -20.359375 C 6.363281 -19.941406 6.59375 -19.394531 6.59375 -18.71875 C 6.59375 -18.0625 6.363281 -17.515625 5.90625 -17.078125 C 5.445312 -16.648438 4.878906 -16.4375 4.203125 -16.4375 Z M 0.65625 0 L 0.65625 -0.296875 L 1.078125 -0.421875 C 1.484375 -0.535156 1.757812 -0.710938 1.90625 -0.953125 C 2.050781 -1.191406 2.125 -1.515625 2.125 -1.921875 L 2.125 -11.3125 C 2.125 -11.726562 2.050781 -12.039062 1.90625 -12.25 C 1.757812 -12.457031 1.484375 -12.601562 1.078125 -12.6875 L 0.65625 -12.78125 L 0.65625 -13.078125 L 6.15625 -14.84375 L 6.453125 -14.546875 L 6.359375 -10.296875 L 6.359375 -1.890625 C 6.359375 -1.492188 6.429688 -1.171875 6.578125 -0.921875 C 6.734375 -0.679688 7 -0.503906 7.375 -0.390625 L 7.6875 -0.296875 L 7.6875 0 Z M 0.65625 0 "/></g></g></g><g fill="#ed0d91" fill-opacity="1"><g transform="translate(164.08814, 188.356908)"><g><path d="M 10.921875 0.546875 C 8.878906 0.546875 7.082031 0.117188 5.53125 -0.734375 C 3.976562 -1.585938 2.765625 -2.796875 1.890625 -4.359375 C 1.023438 -5.929688 0.59375 -7.789062 0.59375 -9.9375 C 0.59375 -12.007812 1.023438 -13.828125 1.890625 -15.390625 C 2.753906 -16.953125 4 -18.164062 5.625 -19.03125 C 7.25 -19.90625 9.222656 -20.34375 11.546875 -20.34375 C 12.609375 -20.34375 13.59375 -20.222656 14.5 -19.984375 C 15.414062 -19.742188 16.28125 -19.394531 17.09375 -18.9375 L 17.21875 -14.734375 L 16.921875 -14.734375 L 15.234375 -17.84375 C 14.972656 -18.34375 14.734375 -18.703125 14.515625 -18.921875 C 14.296875 -19.148438 14.019531 -19.320312 13.6875 -19.4375 C 13.363281 -19.539062 13.066406 -19.613281 12.796875 -19.65625 C 12.523438 -19.707031 12.171875 -19.734375 11.734375 -19.734375 C 10.492188 -19.734375 9.394531 -19.40625 8.4375 -18.75 C 7.488281 -18.09375 6.753906 -17.039062 6.234375 -15.59375 C 5.710938 -14.15625 5.453125 -12.269531 5.453125 -9.9375 C 5.453125 -7.613281 5.695312 -5.71875 6.1875 -4.25 C 6.6875 -2.789062 7.382812 -1.726562 8.28125 -1.0625 C 9.175781 -0.394531 10.21875 -0.0625 11.40625 -0.0625 C 11.582031 -0.0625 11.753906 -0.078125 11.921875 -0.109375 C 12.097656 -0.140625 12.265625 -0.171875 12.421875 -0.203125 C 12.796875 -0.265625 13.039062 -0.425781 13.15625 -0.6875 C 13.28125 -0.945312 13.34375 -1.257812 13.34375 -1.625 L 13.34375 -7.5625 C 13.34375 -8.34375 12.945312 -8.820312 12.15625 -9 L 10.765625 -9.359375 L 10.765625 -9.65625 L 19.234375 -9.65625 L 19.234375 -9.359375 L 18.8125 -9.234375 C 18.050781 -8.992188 17.671875 -8.492188 17.671875 -7.734375 L 17.671875 -1.234375 C 16.628906 -0.648438 15.570312 -0.207031 14.5 0.09375 C 13.4375 0.394531 12.242188 0.546875 10.921875 0.546875 Z M 10.921875 0.546875 "/></g></g></g><g fill="#ed0d91" fill-opacity="1"><g transform="translate(183.76812, 188.356908)"><g><path d="M 0.59375 0 L 0.59375 -0.296875 L 1.015625 -0.421875 C 1.398438 -0.515625 1.664062 -0.679688 1.8125 -0.921875 C 1.96875 -1.171875 2.050781 -1.492188 2.0625 -1.890625 L 2.0625 -11.28125 C 2.0625 -11.71875 1.992188 -12.039062 1.859375 -12.25 C 1.722656 -12.457031 1.453125 -12.601562 1.046875 -12.6875 L 0.59375 -12.8125 L 0.59375 -13.109375 L 5.734375 -14.84375 L 6.03125 -14.546875 L 6.265625 -12.515625 C 6.929688 -13.171875 7.6875 -13.726562 8.53125 -14.1875 C 9.382812 -14.644531 10.269531 -14.875 11.1875 -14.875 C 12.144531 -14.875 12.914062 -14.675781 13.5 -14.28125 C 14.082031 -13.894531 14.519531 -13.296875 14.8125 -12.484375 C 15.59375 -13.222656 16.4375 -13.804688 17.34375 -14.234375 C 18.257812 -14.660156 19.148438 -14.875 20.015625 -14.875 C 21.429688 -14.875 22.472656 -14.535156 23.140625 -13.859375 C 23.816406 -13.179688 24.15625 -12.113281 24.15625 -10.65625 L 24.15625 -1.859375 C 24.15625 -1.078125 24.515625 -0.585938 25.234375 -0.390625 L 25.5625 -0.296875 L 25.5625 0 L 18.625 0 L 18.625 -0.296875 L 18.9375 -0.390625 C 19.3125 -0.503906 19.570312 -0.679688 19.71875 -0.921875 C 19.875 -1.171875 19.953125 -1.492188 19.953125 -1.890625 L 19.953125 -11.0625 C 19.953125 -11.90625 19.800781 -12.484375 19.5 -12.796875 C 19.195312 -13.109375 18.71875 -13.265625 18.0625 -13.265625 C 17.539062 -13.265625 17.035156 -13.144531 16.546875 -12.90625 C 16.054688 -12.675781 15.539062 -12.332031 15 -11.875 C 15.101562 -11.5625 15.164062 -11.210938 15.1875 -10.828125 C 15.21875 -10.453125 15.234375 -10.050781 15.234375 -9.625 L 15.234375 -1.859375 C 15.253906 -1.078125 15.613281 -0.585938 16.3125 -0.390625 L 16.59375 -0.296875 L 16.59375 0 L 9.625 0 L 9.625 -0.296875 L 10.046875 -0.421875 C 10.429688 -0.535156 10.695312 -0.707031 10.84375 -0.9375 C 10.988281 -1.175781 11.0625 -1.492188 11.0625 -1.890625 L 11.0625 -11.046875 C 11.0625 -11.835938 10.914062 -12.40625 10.625 -12.75 C 10.34375 -13.09375 9.851562 -13.265625 9.15625 -13.265625 C 8.6875 -13.265625 8.222656 -13.144531 7.765625 -12.90625 C 7.304688 -12.675781 6.828125 -12.34375 6.328125 -11.90625 L 6.328125 -1.859375 C 6.328125 -1.078125 6.675781 -0.585938 7.375 -0.390625 L 7.65625 -0.296875 L 7.65625 0 Z M 0.59375 0 "/></g></g></g><g fill="#ed0d91" fill-opacity="1"><g transform="translate(209.898093, 188.356908)"><g><path d="M 4.984375 0.453125 C 3.816406 0.453125 2.835938 0.125 2.046875 -0.53125 C 1.265625 -1.195312 0.875 -2.148438 0.875 -3.390625 C 0.875 -4.328125 1.351562 -5.191406 2.3125 -5.984375 C 3.269531 -6.773438 4.78125 -7.367188 6.84375 -7.765625 C 7.15625 -7.828125 7.507812 -7.890625 7.90625 -7.953125 C 8.3125 -8.023438 8.738281 -8.101562 9.1875 -8.1875 L 9.1875 -10.5625 C 9.1875 -11.914062 9.019531 -12.867188 8.6875 -13.421875 C 8.351562 -13.972656 7.835938 -14.25 7.140625 -14.25 C 6.660156 -14.25 6.28125 -14.09375 6 -13.78125 C 5.71875 -13.46875 5.535156 -12.9375 5.453125 -12.1875 L 5.40625 -11.84375 C 5.363281 -10.988281 5.148438 -10.359375 4.765625 -9.953125 C 4.390625 -9.554688 3.921875 -9.359375 3.359375 -9.359375 C 2.835938 -9.359375 2.40625 -9.515625 2.0625 -9.828125 C 1.726562 -10.148438 1.5625 -10.582031 1.5625 -11.125 C 1.5625 -11.945312 1.84375 -12.640625 2.40625 -13.203125 C 2.976562 -13.765625 3.734375 -14.179688 4.671875 -14.453125 C 5.617188 -14.734375 6.640625 -14.875 7.734375 -14.875 C 9.515625 -14.875 10.890625 -14.4375 11.859375 -13.5625 C 12.828125 -12.695312 13.3125 -11.285156 13.3125 -9.328125 L 13.3125 -2.703125 C 13.3125 -1.796875 13.734375 -1.34375 14.578125 -1.34375 L 15.234375 -1.34375 L 15.515625 -1.109375 C 15.128906 -0.628906 14.710938 -0.257812 14.265625 0 C 13.816406 0.257812 13.179688 0.390625 12.359375 0.390625 C 11.484375 0.390625 10.789062 0.1875 10.28125 -0.21875 C 9.769531 -0.632812 9.429688 -1.179688 9.265625 -1.859375 C 8.671875 -1.222656 8.054688 -0.675781 7.421875 -0.21875 C 6.796875 0.226562 5.984375 0.453125 4.984375 0.453125 Z M 6.8125 -1.375 C 7.207031 -1.375 7.578125 -1.46875 7.921875 -1.65625 C 8.273438 -1.851562 8.695312 -2.148438 9.1875 -2.546875 L 9.1875 -7.59375 C 8.976562 -7.550781 8.773438 -7.507812 8.578125 -7.46875 C 8.378906 -7.425781 8.148438 -7.382812 7.890625 -7.34375 C 6.972656 -7.101562 6.238281 -6.695312 5.6875 -6.125 C 5.132812 -5.5625 4.859375 -4.800781 4.859375 -3.84375 C 4.859375 -3.019531 5.046875 -2.398438 5.421875 -1.984375 C 5.804688 -1.578125 6.269531 -1.375 6.8125 -1.375 Z M 6.8125 -1.375 "/></g></g></g><g fill="#ed0d91" fill-opacity="1"><g transform="translate(225.438082, 188.356908)"><g/></g></g><g fill="#ed0d91" fill-opacity="1"><g transform="translate(231.978071, 188.356908)"><g><path d="M 7.109375 0.546875 C 6.003906 0.546875 4.882812 0.410156 3.75 0.140625 C 2.613281 -0.128906 1.664062 -0.488281 0.90625 -0.9375 L 1.046875 -5.015625 L 1.34375 -5.015625 L 2.28125 -3.0625 C 2.5625 -2.5 2.859375 -2.003906 3.171875 -1.578125 C 3.492188 -1.148438 3.9375 -0.8125 4.5 -0.5625 C 4.894531 -0.363281 5.273438 -0.226562 5.640625 -0.15625 C 6.015625 -0.09375 6.4375 -0.0625 6.90625 -0.0625 C 8.125 -0.0625 9.085938 -0.390625 9.796875 -1.046875 C 10.503906 -1.710938 10.859375 -2.5625 10.859375 -3.59375 C 10.859375 -4.570312 10.617188 -5.335938 10.140625 -5.890625 C 9.660156 -6.441406 8.890625 -6.976562 7.828125 -7.5 L 6.59375 -8.046875 C 4.875 -8.804688 3.53125 -9.679688 2.5625 -10.671875 C 1.59375 -11.660156 1.109375 -12.972656 1.109375 -14.609375 C 1.109375 -15.785156 1.410156 -16.800781 2.015625 -17.65625 C 2.628906 -18.519531 3.476562 -19.179688 4.5625 -19.640625 C 5.65625 -20.109375 6.9375 -20.34375 8.40625 -20.34375 C 9.457031 -20.34375 10.457031 -20.203125 11.40625 -19.921875 C 12.363281 -19.640625 13.191406 -19.257812 13.890625 -18.78125 L 13.703125 -15.1875 L 13.40625 -15.1875 L 12.1875 -17.4375 C 11.84375 -18.132812 11.5 -18.625 11.15625 -18.90625 C 10.820312 -19.195312 10.429688 -19.40625 9.984375 -19.53125 C 9.722656 -19.613281 9.484375 -19.664062 9.265625 -19.6875 C 9.046875 -19.71875 8.769531 -19.734375 8.4375 -19.734375 C 7.414062 -19.734375 6.550781 -19.4375 5.84375 -18.84375 C 5.144531 -18.257812 4.796875 -17.46875 4.796875 -16.46875 C 4.796875 -15.445312 5.066406 -14.628906 5.609375 -14.015625 C 6.148438 -13.410156 6.941406 -12.867188 7.984375 -12.390625 L 9.359375 -11.796875 C 11.273438 -10.953125 12.65625 -10.054688 13.5 -9.109375 C 14.34375 -8.160156 14.765625 -6.9375 14.765625 -5.4375 C 14.765625 -3.675781 14.097656 -2.238281 12.765625 -1.125 C 11.429688 -0.0078125 9.546875 0.546875 7.109375 0.546875 Z M 7.109375 0.546875 "/></g></g></g><g fill="#ed0d91" fill-opacity="1"><g transform="translate(247.608055, 188.356908)"><g><path d="M 0.6875 0 L 0.6875 -0.296875 L 1.046875 -0.421875 C 1.765625 -0.660156 2.125 -1.160156 2.125 -1.921875 L 2.125 -17.9375 C 2.125 -18.351562 2.050781 -18.660156 1.90625 -18.859375 C 1.769531 -19.066406 1.503906 -19.21875 1.109375 -19.3125 L 0.65625 -19.4375 L 0.65625 -19.734375 L 5.9375 -21.03125 L 6.421875 -20.765625 L 6.296875 -16.53125 L 6.296875 -12.78125 C 6.992188 -13.363281 7.75 -13.859375 8.5625 -14.265625 C 9.375 -14.671875 10.269531 -14.875 11.25 -14.875 C 12.550781 -14.875 13.585938 -14.503906 14.359375 -13.765625 C 15.128906 -13.023438 15.515625 -11.882812 15.515625 -10.34375 L 15.515625 -1.890625 C 15.515625 -1.492188 15.59375 -1.171875 15.75 -0.921875 C 15.90625 -0.679688 16.1875 -0.503906 16.59375 -0.390625 L 16.828125 -0.296875 L 16.828125 0 L 9.8125 0 L 9.8125 -0.296875 L 10.171875 -0.390625 C 10.890625 -0.628906 11.25 -1.140625 11.25 -1.921875 L 11.25 -11.34375 C 11.25 -12.144531 11.113281 -12.691406 10.84375 -12.984375 C 10.570312 -13.285156 10.097656 -13.4375 9.421875 -13.4375 C 8.984375 -13.4375 8.503906 -13.351562 7.984375 -13.1875 C 7.460938 -13.019531 6.929688 -12.722656 6.390625 -12.296875 L 6.390625 -1.859375 C 6.390625 -1.078125 6.75 -0.578125 7.46875 -0.359375 L 7.703125 -0.296875 L 7.703125 0 Z M 0.6875 0 "/></g></g></g><g fill="#ed0d91" fill-opacity="1"><g transform="translate(265.008041, 188.356908)"><g><path d="M 8.1875 0.453125 C 6.664062 0.453125 5.34375 0.140625 4.21875 -0.484375 C 3.101562 -1.117188 2.238281 -2.015625 1.625 -3.171875 C 1.019531 -4.335938 0.71875 -5.703125 0.71875 -7.265625 C 0.71875 -8.816406 1.039062 -10.160156 1.6875 -11.296875 C 2.34375 -12.441406 3.234375 -13.320312 4.359375 -13.9375 C 5.492188 -14.5625 6.769531 -14.875 8.1875 -14.875 C 9.601562 -14.875 10.875 -14.566406 12 -13.953125 C 13.125 -13.347656 14.007812 -12.472656 14.65625 -11.328125 C 15.300781 -10.191406 15.625 -8.835938 15.625 -7.265625 C 15.625 -5.679688 15.316406 -4.3125 14.703125 -3.15625 C 14.097656 -2.007812 13.238281 -1.117188 12.125 -0.484375 C 11.019531 0.140625 9.707031 0.453125 8.1875 0.453125 Z M 8.1875 -0.15625 C 8.882812 -0.15625 9.441406 -0.351562 9.859375 -0.75 C 10.285156 -1.144531 10.59375 -1.851562 10.78125 -2.875 C 10.96875 -3.894531 11.0625 -5.335938 11.0625 -7.203125 C 11.0625 -9.078125 10.96875 -10.523438 10.78125 -11.546875 C 10.59375 -12.566406 10.285156 -13.273438 9.859375 -13.671875 C 9.441406 -14.078125 8.882812 -14.28125 8.1875 -14.28125 C 7.488281 -14.28125 6.921875 -14.078125 6.484375 -13.671875 C 6.054688 -13.273438 5.75 -12.566406 5.5625 -11.546875 C 5.375 -10.523438 5.28125 -9.078125 5.28125 -7.203125 C 5.28125 -5.335938 5.375 -3.894531 5.5625 -2.875 C 5.75 -1.851562 6.054688 -1.144531 6.484375 -0.75 C 6.921875 -0.351562 7.488281 -0.15625 8.1875 -0.15625 Z M 8.1875 -0.15625 "/></g></g></g><g fill="#ed0d91" fill-opacity="1"><g transform="translate(281.358019, 188.356908)"><g><path d="M 0.59375 6.90625 L 0.59375 6.59375 L 0.953125 6.484375 C 1.691406 6.285156 2.0625 5.804688 2.0625 5.046875 L 2.0625 -11.28125 C 2.0625 -11.71875 1.988281 -12.046875 1.84375 -12.265625 C 1.695312 -12.484375 1.421875 -12.632812 1.015625 -12.71875 L 0.59375 -12.8125 L 0.59375 -13.109375 L 5.703125 -14.84375 L 6 -14.546875 L 6.265625 -13.625 C 6.929688 -14.019531 7.664062 -14.328125 8.46875 -14.546875 C 9.28125 -14.765625 10.117188 -14.875 10.984375 -14.875 C 12.703125 -14.875 14.066406 -14.21875 15.078125 -12.90625 C 16.085938 -11.601562 16.59375 -9.734375 16.59375 -7.296875 C 16.59375 -4.890625 16.035156 -2.992188 14.921875 -1.609375 C 13.816406 -0.234375 12.253906 0.453125 10.234375 0.453125 C 8.648438 0.453125 7.316406 0.222656 6.234375 -0.234375 L 6.234375 4.953125 C 6.234375 5.753906 6.59375 6.253906 7.3125 6.453125 L 7.890625 6.59375 L 7.890625 6.90625 Z M 8.796875 -0.421875 C 9.796875 -0.421875 10.585938 -0.941406 11.171875 -1.984375 C 11.765625 -3.023438 12.0625 -4.753906 12.0625 -7.171875 C 12.0625 -9.585938 11.78125 -11.28125 11.21875 -12.25 C 10.65625 -13.21875 9.847656 -13.703125 8.796875 -13.703125 C 8.054688 -13.703125 7.234375 -13.460938 6.328125 -12.984375 L 6.328125 -0.90625 C 7.085938 -0.582031 7.910156 -0.421875 8.796875 -0.421875 Z M 8.796875 -0.421875 "/></g></g></g><g fill="#03466e" fill-opacity="1"><g transform="translate(155.642572, 208.760405)"><g><path d="M 0.296875 0 L 0.296875 -0.140625 L 0.609375 -0.25 C 0.753906 -0.3125 0.859375 -0.394531 0.921875 -0.5 C 0.984375 -0.601562 1.015625 -0.742188 1.015625 -0.921875 L 1.015625 -7.953125 C 1.015625 -8.140625 0.988281 -8.285156 0.9375 -8.390625 C 0.882812 -8.492188 0.773438 -8.578125 0.609375 -8.640625 L 0.296875 -8.75 L 0.296875 -8.890625 L 6.75 -8.890625 L 6.828125 -6.8125 L 6.6875 -6.8125 L 6.109375 -8.078125 C 6.035156 -8.242188 5.953125 -8.375 5.859375 -8.46875 C 5.765625 -8.570312 5.628906 -8.625 5.453125 -8.625 L 3.03125 -8.625 L 3.03125 -4.734375 L 4.46875 -4.734375 C 4.644531 -4.734375 4.78125 -4.78125 4.875 -4.875 C 4.976562 -4.96875 5.0625 -5.09375 5.125 -5.25 L 5.40625 -5.796875 L 5.53125 -5.796875 L 5.53125 -3.359375 L 5.40625 -3.359375 L 5.125 -3.9375 C 5.050781 -4.09375 4.96875 -4.21875 4.875 -4.3125 C 4.78125 -4.40625 4.644531 -4.453125 4.46875 -4.453125 L 3.03125 -4.453125 L 3.03125 -0.265625 L 5.75 -0.265625 C 5.925781 -0.265625 6.0625 -0.3125 6.15625 -0.40625 C 6.257812 -0.5 6.34375 -0.632812 6.40625 -0.8125 L 6.96875 -2.078125 L 7.09375 -2.078125 L 7.015625 0 Z M 0.296875 0 "/></g></g></g><g fill="#03466e" fill-opacity="1"><g transform="translate(163.109029, 208.760405)"><g><path d="M 0.171875 0 L 0.171875 -0.140625 L 0.53125 -0.21875 C 0.726562 -0.257812 0.890625 -0.328125 1.015625 -0.421875 C 1.148438 -0.515625 1.28125 -0.648438 1.40625 -0.828125 L 2.859375 -2.90625 L 1.03125 -5.8125 C 0.9375 -5.945312 0.851562 -6.050781 0.78125 -6.125 C 0.707031 -6.195312 0.59375 -6.253906 0.4375 -6.296875 L 0.25 -6.34375 L 0.25 -6.484375 L 3.671875 -6.484375 L 3.671875 -6.34375 L 3.453125 -6.296875 C 3.140625 -6.191406 3.078125 -5.992188 3.265625 -5.703125 L 4.359375 -3.984375 L 5.5625 -5.640625 C 5.65625 -5.796875 5.703125 -5.925781 5.703125 -6.03125 C 5.703125 -6.132812 5.613281 -6.207031 5.4375 -6.25 L 5.109375 -6.34375 L 5.109375 -6.484375 L 7.078125 -6.484375 L 7.078125 -6.34375 L 6.75 -6.265625 C 6.550781 -6.210938 6.394531 -6.140625 6.28125 -6.046875 C 6.175781 -5.960938 6.0625 -5.832031 5.9375 -5.65625 L 4.53125 -3.75 L 6.375 -0.875 C 6.59375 -0.519531 6.890625 -0.296875 7.265625 -0.203125 L 7.484375 -0.140625 L 7.484375 0 L 3.765625 0 L 3.765625 -0.140625 L 4 -0.1875 C 4.15625 -0.226562 4.25 -0.300781 4.28125 -0.40625 C 4.320312 -0.519531 4.300781 -0.648438 4.21875 -0.796875 L 3.03125 -2.640625 L 1.75 -0.78125 C 1.644531 -0.632812 1.609375 -0.507812 1.640625 -0.40625 C 1.679688 -0.300781 1.773438 -0.234375 1.921875 -0.203125 L 2.203125 -0.140625 L 2.203125 0 Z M 0.171875 0 "/></g></g></g><g fill="#03466e" fill-opacity="1"><g transform="translate(170.750374, 208.760405)"><g><path d="M 0.265625 3.09375 L 0.265625 2.96875 L 0.4375 2.90625 C 0.757812 2.820312 0.921875 2.609375 0.921875 2.265625 L 0.921875 -5.0625 C 0.921875 -5.257812 0.890625 -5.40625 0.828125 -5.5 C 0.765625 -5.601562 0.640625 -5.671875 0.453125 -5.703125 L 0.265625 -5.75 L 0.265625 -5.890625 L 2.5625 -6.671875 L 2.6875 -6.53125 L 2.8125 -6.109375 C 3.113281 -6.296875 3.441406 -6.4375 3.796875 -6.53125 C 4.160156 -6.632812 4.535156 -6.6875 4.921875 -6.6875 C 5.703125 -6.6875 6.316406 -6.390625 6.765625 -5.796875 C 7.222656 -5.210938 7.453125 -4.367188 7.453125 -3.265625 C 7.453125 -2.191406 7.203125 -1.34375 6.703125 -0.71875 C 6.203125 -0.101562 5.5 0.203125 4.59375 0.203125 C 3.882812 0.203125 3.285156 0.0976562 2.796875 -0.109375 L 2.796875 2.21875 C 2.796875 2.582031 2.957031 2.804688 3.28125 2.890625 L 3.546875 2.96875 L 3.546875 3.09375 Z M 3.953125 -0.1875 C 4.398438 -0.1875 4.753906 -0.421875 5.015625 -0.890625 C 5.285156 -1.359375 5.421875 -2.132812 5.421875 -3.21875 C 5.421875 -4.300781 5.289062 -5.0625 5.03125 -5.5 C 4.78125 -5.9375 4.421875 -6.15625 3.953125 -6.15625 C 3.617188 -6.15625 3.25 -6.046875 2.84375 -5.828125 L 2.84375 -0.40625 C 3.1875 -0.257812 3.554688 -0.1875 3.953125 -0.1875 Z M 3.953125 -0.1875 "/></g></g></g><g fill="#03466e" fill-opacity="1"><g transform="translate(178.526245, 208.760405)"><g><path d="M 3.65625 -6.6875 C 4.238281 -6.6875 4.734375 -6.566406 5.140625 -6.328125 C 5.554688 -6.085938 5.875 -5.757812 6.09375 -5.34375 C 6.3125 -4.9375 6.421875 -4.472656 6.421875 -3.953125 C 6.421875 -3.859375 6.414062 -3.757812 6.40625 -3.65625 C 6.394531 -3.550781 6.378906 -3.457031 6.359375 -3.375 L 2.34375 -3.375 C 2.351562 -2.40625 2.523438 -1.707031 2.859375 -1.28125 C 3.191406 -0.851562 3.691406 -0.640625 4.359375 -0.640625 C 4.804688 -0.640625 5.171875 -0.710938 5.453125 -0.859375 C 5.734375 -1.003906 5.992188 -1.21875 6.234375 -1.5 L 6.375 -1.375 C 6.09375 -0.882812 5.71875 -0.5 5.25 -0.21875 C 4.789062 0.0625 4.238281 0.203125 3.59375 0.203125 C 2.957031 0.203125 2.390625 0.0664062 1.890625 -0.203125 C 1.398438 -0.484375 1.015625 -0.878906 0.734375 -1.390625 C 0.460938 -1.898438 0.328125 -2.507812 0.328125 -3.21875 C 0.328125 -3.957031 0.488281 -4.582031 0.8125 -5.09375 C 1.132812 -5.613281 1.546875 -6.007812 2.046875 -6.28125 C 2.554688 -6.550781 3.09375 -6.6875 3.65625 -6.6875 Z M 3.609375 -6.40625 C 3.347656 -6.40625 3.125 -6.328125 2.9375 -6.171875 C 2.757812 -6.015625 2.617188 -5.734375 2.515625 -5.328125 C 2.410156 -4.929688 2.351562 -4.375 2.34375 -3.65625 L 4.640625 -3.65625 C 4.734375 -4.632812 4.695312 -5.335938 4.53125 -5.765625 C 4.375 -6.191406 4.066406 -6.40625 3.609375 -6.40625 Z M 3.609375 -6.40625 "/></g></g></g><g fill="#03466e" fill-opacity="1"><g transform="translate(185.346946, 208.760405)"><g><path d="M 3.609375 0.203125 C 2.992188 0.203125 2.4375 0.0703125 1.9375 -0.1875 C 1.445312 -0.457031 1.054688 -0.84375 0.765625 -1.34375 C 0.472656 -1.851562 0.328125 -2.476562 0.328125 -3.21875 C 0.328125 -3.945312 0.484375 -4.566406 0.796875 -5.078125 C 1.117188 -5.597656 1.546875 -5.992188 2.078125 -6.265625 C 2.609375 -6.546875 3.195312 -6.6875 3.84375 -6.6875 C 4.363281 -6.6875 4.800781 -6.597656 5.15625 -6.421875 C 5.519531 -6.253906 5.796875 -6.03125 5.984375 -5.75 C 6.171875 -5.476562 6.265625 -5.195312 6.265625 -4.90625 C 6.265625 -4.65625 6.1875 -4.457031 6.03125 -4.3125 C 5.882812 -4.175781 5.6875 -4.109375 5.4375 -4.109375 C 5.175781 -4.109375 4.960938 -4.203125 4.796875 -4.390625 C 4.640625 -4.578125 4.550781 -4.820312 4.53125 -5.125 C 4.519531 -5.320312 4.519531 -5.488281 4.53125 -5.625 C 4.550781 -5.769531 4.550781 -5.914062 4.53125 -6.0625 C 4.5 -6.21875 4.441406 -6.316406 4.359375 -6.359375 C 4.285156 -6.410156 4.179688 -6.4375 4.046875 -6.4375 C 3.503906 -6.4375 3.082031 -6.195312 2.78125 -5.71875 C 2.476562 -5.25 2.328125 -4.492188 2.328125 -3.453125 C 2.328125 -2.546875 2.492188 -1.847656 2.828125 -1.359375 C 3.171875 -0.878906 3.691406 -0.640625 4.390625 -0.640625 C 4.816406 -0.640625 5.160156 -0.71875 5.421875 -0.875 C 5.679688 -1.03125 5.929688 -1.257812 6.171875 -1.5625 L 6.296875 -1.453125 C 6.078125 -0.921875 5.734375 -0.507812 5.265625 -0.21875 C 4.796875 0.0625 4.242188 0.203125 3.609375 0.203125 Z M 3.609375 0.203125 "/></g></g></g><g fill="#03466e" fill-opacity="1"><g transform="translate(191.992759, 208.760405)"><g><path d="M 2.828125 0.203125 C 2.253906 0.203125 1.804688 0.0625 1.484375 -0.21875 C 1.171875 -0.507812 1.015625 -0.972656 1.015625 -1.609375 L 1.015625 -6.203125 L 0.078125 -6.203125 L 0.078125 -6.34375 L 0.40625 -6.390625 C 0.6875 -6.453125 0.925781 -6.539062 1.125 -6.65625 C 1.320312 -6.78125 1.519531 -6.941406 1.71875 -7.140625 L 2.828125 -8.359375 L 2.96875 -8.359375 L 2.921875 -6.484375 L 4.4375 -6.484375 L 4.4375 -6.203125 L 2.90625 -6.203125 L 2.90625 -1.359375 C 2.90625 -1.046875 2.972656 -0.804688 3.109375 -0.640625 C 3.253906 -0.484375 3.4375 -0.40625 3.65625 -0.40625 C 3.84375 -0.40625 4.003906 -0.453125 4.140625 -0.546875 C 4.285156 -0.640625 4.429688 -0.765625 4.578125 -0.921875 L 4.71875 -0.796875 C 4.53125 -0.492188 4.28125 -0.25 3.96875 -0.0625 C 3.65625 0.113281 3.273438 0.203125 2.828125 0.203125 Z M 2.828125 0.203125 "/></g></g></g><g fill="#03466e" fill-opacity="1"><g transform="translate(196.849311, 208.760405)"><g/></g></g><g fill="#03466e" fill-opacity="1"><g transform="translate(199.782076, 208.760405)"><g><path d="M 0.265625 0 L 0.265625 -0.140625 L 0.453125 -0.1875 C 0.628906 -0.226562 0.75 -0.300781 0.8125 -0.40625 C 0.882812 -0.519531 0.921875 -0.664062 0.921875 -0.84375 L 0.921875 -5.0625 C 0.921875 -5.257812 0.890625 -5.40625 0.828125 -5.5 C 0.765625 -5.59375 0.644531 -5.660156 0.46875 -5.703125 L 0.265625 -5.75 L 0.265625 -5.890625 L 2.578125 -6.671875 L 2.703125 -6.53125 L 2.8125 -5.609375 C 3.113281 -5.910156 3.453125 -6.164062 3.828125 -6.375 C 4.210938 -6.582031 4.613281 -6.6875 5.03125 -6.6875 C 5.457031 -6.6875 5.800781 -6.597656 6.0625 -6.421875 C 6.320312 -6.242188 6.519531 -5.972656 6.65625 -5.609375 C 7 -5.929688 7.375 -6.191406 7.78125 -6.390625 C 8.195312 -6.585938 8.597656 -6.6875 8.984375 -6.6875 C 9.617188 -6.6875 10.085938 -6.53125 10.390625 -6.21875 C 10.691406 -5.914062 10.84375 -5.4375 10.84375 -4.78125 L 10.84375 -0.828125 C 10.84375 -0.484375 11.003906 -0.265625 11.328125 -0.171875 L 11.46875 -0.140625 L 11.46875 0 L 8.359375 0 L 8.359375 -0.140625 L 8.5 -0.171875 C 8.664062 -0.222656 8.78125 -0.300781 8.84375 -0.40625 C 8.914062 -0.519531 8.953125 -0.664062 8.953125 -0.84375 L 8.953125 -4.96875 C 8.953125 -5.34375 8.882812 -5.597656 8.75 -5.734375 C 8.613281 -5.878906 8.398438 -5.953125 8.109375 -5.953125 C 7.878906 -5.953125 7.648438 -5.898438 7.421875 -5.796875 C 7.203125 -5.691406 6.972656 -5.535156 6.734375 -5.328125 C 6.773438 -5.191406 6.800781 -5.035156 6.8125 -4.859375 C 6.832031 -4.691406 6.84375 -4.515625 6.84375 -4.328125 L 6.84375 -0.828125 C 6.851562 -0.484375 7.015625 -0.265625 7.328125 -0.171875 L 7.453125 -0.140625 L 7.453125 0 L 4.328125 0 L 4.328125 -0.140625 L 4.515625 -0.1875 C 4.679688 -0.238281 4.796875 -0.316406 4.859375 -0.421875 C 4.929688 -0.523438 4.96875 -0.664062 4.96875 -0.84375 L 4.96875 -4.953125 C 4.96875 -5.316406 4.898438 -5.570312 4.765625 -5.71875 C 4.640625 -5.875 4.421875 -5.953125 4.109375 -5.953125 C 3.898438 -5.953125 3.691406 -5.898438 3.484375 -5.796875 C 3.273438 -5.691406 3.0625 -5.539062 2.84375 -5.34375 L 2.84375 -0.828125 C 2.84375 -0.484375 3 -0.265625 3.3125 -0.171875 L 3.4375 -0.140625 L 3.4375 0 Z M 0.265625 0 "/></g></g></g><g fill="#03466e" fill-opacity="1"><g transform="translate(211.499693, 208.760405)"><g><path d="M 3.671875 0.203125 C 2.992188 0.203125 2.398438 0.0625 1.890625 -0.21875 C 1.390625 -0.5 1.003906 -0.898438 0.734375 -1.421875 C 0.460938 -1.941406 0.328125 -2.554688 0.328125 -3.265625 C 0.328125 -3.960938 0.472656 -4.566406 0.765625 -5.078125 C 1.054688 -5.585938 1.453125 -5.984375 1.953125 -6.265625 C 2.460938 -6.546875 3.035156 -6.6875 3.671875 -6.6875 C 4.316406 -6.6875 4.890625 -6.546875 5.390625 -6.265625 C 5.890625 -5.992188 6.285156 -5.601562 6.578125 -5.09375 C 6.867188 -4.582031 7.015625 -3.972656 7.015625 -3.265625 C 7.015625 -2.554688 6.878906 -1.941406 6.609375 -1.421875 C 6.335938 -0.898438 5.953125 -0.5 5.453125 -0.21875 C 4.953125 0.0625 4.359375 0.203125 3.671875 0.203125 Z M 3.671875 -0.0625 C 3.984375 -0.0625 4.234375 -0.148438 4.421875 -0.328125 C 4.617188 -0.515625 4.757812 -0.835938 4.84375 -1.296875 C 4.925781 -1.753906 4.96875 -2.398438 4.96875 -3.234375 C 4.96875 -4.078125 4.925781 -4.726562 4.84375 -5.1875 C 4.757812 -5.644531 4.617188 -5.960938 4.421875 -6.140625 C 4.234375 -6.316406 3.984375 -6.40625 3.671875 -6.40625 C 3.359375 -6.40625 3.101562 -6.316406 2.90625 -6.140625 C 2.71875 -5.960938 2.582031 -5.644531 2.5 -5.1875 C 2.414062 -4.726562 2.375 -4.078125 2.375 -3.234375 C 2.375 -2.398438 2.414062 -1.753906 2.5 -1.296875 C 2.582031 -0.835938 2.71875 -0.515625 2.90625 -0.328125 C 3.101562 -0.148438 3.359375 -0.0625 3.671875 -0.0625 Z M 3.671875 -0.0625 "/></g></g></g><g fill="#03466e" fill-opacity="1"><g transform="translate(218.831613, 208.760405)"><g><path d="M 0.265625 0 L 0.265625 -0.140625 L 0.46875 -0.1875 C 0.644531 -0.238281 0.765625 -0.316406 0.828125 -0.421875 C 0.898438 -0.535156 0.9375 -0.675781 0.9375 -0.84375 L 0.9375 -5.0625 C 0.9375 -5.257812 0.898438 -5.40625 0.828125 -5.5 C 0.765625 -5.59375 0.644531 -5.660156 0.46875 -5.703125 L 0.265625 -5.75 L 0.265625 -5.890625 L 2.59375 -6.671875 L 2.71875 -6.53125 L 2.84375 -5.375 L 2.84375 -5.265625 C 2.96875 -5.515625 3.128906 -5.742188 3.328125 -5.953125 C 3.535156 -6.171875 3.757812 -6.347656 4 -6.484375 C 4.25 -6.617188 4.492188 -6.6875 4.734375 -6.6875 C 5.078125 -6.6875 5.335938 -6.585938 5.515625 -6.390625 C 5.703125 -6.203125 5.796875 -5.96875 5.796875 -5.6875 C 5.796875 -5.375 5.707031 -5.132812 5.53125 -4.96875 C 5.351562 -4.8125 5.144531 -4.734375 4.90625 -4.734375 C 4.53125 -4.734375 4.195312 -4.921875 3.90625 -5.296875 L 3.875 -5.3125 C 3.789062 -5.445312 3.6875 -5.519531 3.5625 -5.53125 C 3.445312 -5.539062 3.34375 -5.484375 3.25 -5.359375 C 3.15625 -5.273438 3.078125 -5.175781 3.015625 -5.0625 C 2.960938 -4.957031 2.910156 -4.832031 2.859375 -4.6875 L 2.859375 -0.921875 C 2.859375 -0.566406 3.015625 -0.34375 3.328125 -0.25 L 3.75 -0.140625 L 3.75 0 Z M 0.265625 0 "/></g></g></g><g fill="#03466e" fill-opacity="1"><g transform="translate(224.764413, 208.760405)"><g><path d="M 3.65625 -6.6875 C 4.238281 -6.6875 4.734375 -6.566406 5.140625 -6.328125 C 5.554688 -6.085938 5.875 -5.757812 6.09375 -5.34375 C 6.3125 -4.9375 6.421875 -4.472656 6.421875 -3.953125 C 6.421875 -3.859375 6.414062 -3.757812 6.40625 -3.65625 C 6.394531 -3.550781 6.378906 -3.457031 6.359375 -3.375 L 2.34375 -3.375 C 2.351562 -2.40625 2.523438 -1.707031 2.859375 -1.28125 C 3.191406 -0.851562 3.691406 -0.640625 4.359375 -0.640625 C 4.804688 -0.640625 5.171875 -0.710938 5.453125 -0.859375 C 5.734375 -1.003906 5.992188 -1.21875 6.234375 -1.5 L 6.375 -1.375 C 6.09375 -0.882812 5.71875 -0.5 5.25 -0.21875 C 4.789062 0.0625 4.238281 0.203125 3.59375 0.203125 C 2.957031 0.203125 2.390625 0.0664062 1.890625 -0.203125 C 1.398438 -0.484375 1.015625 -0.878906 0.734375 -1.390625 C 0.460938 -1.898438 0.328125 -2.507812 0.328125 -3.21875 C 0.328125 -3.957031 0.488281 -4.582031 0.8125 -5.09375 C 1.132812 -5.613281 1.546875 -6.007812 2.046875 -6.28125 C 2.554688 -6.550781 3.09375 -6.6875 3.65625 -6.6875 Z M 3.609375 -6.40625 C 3.347656 -6.40625 3.125 -6.328125 2.9375 -6.171875 C 2.757812 -6.015625 2.617188 -5.734375 2.515625 -5.328125 C 2.410156 -4.929688 2.351562 -4.375 2.34375 -3.65625 L 4.640625 -3.65625 C 4.734375 -4.632812 4.695312 -5.335938 4.53125 -5.765625 C 4.375 -6.191406 4.066406 -6.40625 3.609375 -6.40625 Z M 3.609375 -6.40625 "/></g></g></g><g fill="#03466e" fill-opacity="1"><g transform="translate(231.585114, 208.760405)"><g><path d="M 1.171875 2.140625 L 1.09375 1.953125 C 1.394531 1.765625 1.625 1.535156 1.78125 1.265625 C 1.9375 1.003906 2.046875 0.675781 2.109375 0.28125 L 1.671875 0.09375 C 1.410156 -0.03125 1.207031 -0.191406 1.0625 -0.390625 C 0.925781 -0.597656 0.859375 -0.804688 0.859375 -1.015625 C 0.859375 -1.328125 0.960938 -1.585938 1.171875 -1.796875 C 1.378906 -2.003906 1.648438 -2.109375 1.984375 -2.109375 C 2.316406 -2.109375 2.585938 -1.988281 2.796875 -1.75 C 3.015625 -1.519531 3.125 -1.179688 3.125 -0.734375 C 3.125 -0.234375 3.019531 0.207031 2.8125 0.59375 C 2.613281 0.988281 2.363281 1.316406 2.0625 1.578125 C 1.769531 1.847656 1.472656 2.035156 1.171875 2.140625 Z M 1.171875 2.140625 "/></g></g></g><g fill="#03466e" fill-opacity="1"><g transform="translate(235.621033, 208.760405)"><g/></g></g><g fill="#03466e" fill-opacity="1"><g transform="translate(238.553798, 208.760405)"><g><path d="M 0.296875 0 L 0.296875 -0.140625 L 0.5625 -0.234375 C 0.738281 -0.285156 0.859375 -0.363281 0.921875 -0.46875 C 0.984375 -0.582031 1.015625 -0.726562 1.015625 -0.90625 L 1.015625 -7.953125 C 1.015625 -8.140625 0.984375 -8.285156 0.921875 -8.390625 C 0.859375 -8.492188 0.734375 -8.578125 0.546875 -8.640625 L 0.296875 -8.75 L 0.296875 -8.890625 L 3.5625 -8.890625 C 4.90625 -8.890625 5.875 -8.644531 6.46875 -8.15625 C 7.070312 -7.664062 7.375 -7.019531 7.375 -6.21875 C 7.375 -5.707031 7.25 -5.238281 7 -4.8125 C 6.75 -4.382812 6.335938 -4.046875 5.765625 -3.796875 C 5.203125 -3.546875 4.441406 -3.421875 3.484375 -3.421875 L 3.03125 -3.421875 L 3.03125 -0.9375 C 3.03125 -0.59375 3.207031 -0.363281 3.5625 -0.25 L 3.953125 -0.140625 L 3.953125 0 Z M 3.03125 -3.6875 L 3.546875 -3.6875 C 3.984375 -3.6875 4.335938 -3.757812 4.609375 -3.90625 C 4.890625 -4.050781 5.097656 -4.300781 5.234375 -4.65625 C 5.367188 -5.019531 5.4375 -5.519531 5.4375 -6.15625 C 5.4375 -6.800781 5.363281 -7.300781 5.21875 -7.65625 C 5.070312 -8.019531 4.851562 -8.269531 4.5625 -8.40625 C 4.28125 -8.550781 3.921875 -8.625 3.484375 -8.625 L 3.03125 -8.625 Z M 3.03125 -3.6875 "/></g></g></g><g fill="#03466e" fill-opacity="1"><g transform="translate(246.154781, 208.760405)"><g><path d="M 2.234375 0.203125 C 1.710938 0.203125 1.273438 0.0546875 0.921875 -0.234375 C 0.566406 -0.535156 0.390625 -0.960938 0.390625 -1.515625 C 0.390625 -1.941406 0.601562 -2.332031 1.03125 -2.6875 C 1.46875 -3.039062 2.148438 -3.304688 3.078125 -3.484375 C 3.210938 -3.515625 3.367188 -3.546875 3.546875 -3.578125 C 3.734375 -3.609375 3.925781 -3.640625 4.125 -3.671875 L 4.125 -4.734375 C 4.125 -5.347656 4.046875 -5.773438 3.890625 -6.015625 C 3.742188 -6.265625 3.515625 -6.390625 3.203125 -6.390625 C 2.984375 -6.390625 2.8125 -6.320312 2.6875 -6.1875 C 2.5625 -6.050781 2.484375 -5.8125 2.453125 -5.46875 L 2.421875 -5.3125 C 2.398438 -4.925781 2.304688 -4.644531 2.140625 -4.46875 C 1.972656 -4.289062 1.765625 -4.203125 1.515625 -4.203125 C 1.273438 -4.203125 1.078125 -4.273438 0.921875 -4.421875 C 0.773438 -4.566406 0.703125 -4.757812 0.703125 -5 C 0.703125 -5.363281 0.828125 -5.671875 1.078125 -5.921875 C 1.335938 -6.171875 1.675781 -6.359375 2.09375 -6.484375 C 2.519531 -6.617188 2.976562 -6.6875 3.46875 -6.6875 C 4.269531 -6.6875 4.890625 -6.488281 5.328125 -6.09375 C 5.765625 -5.707031 5.984375 -5.070312 5.984375 -4.1875 L 5.984375 -1.21875 C 5.984375 -0.8125 6.171875 -0.609375 6.546875 -0.609375 L 6.84375 -0.609375 L 6.96875 -0.5 C 6.789062 -0.28125 6.597656 -0.113281 6.390625 0 C 6.191406 0.113281 5.910156 0.171875 5.546875 0.171875 C 5.148438 0.171875 4.835938 0.0820312 4.609375 -0.09375 C 4.378906 -0.28125 4.226562 -0.523438 4.15625 -0.828125 C 3.882812 -0.546875 3.609375 -0.300781 3.328125 -0.09375 C 3.046875 0.101562 2.679688 0.203125 2.234375 0.203125 Z M 3.0625 -0.625 C 3.238281 -0.625 3.40625 -0.664062 3.5625 -0.75 C 3.71875 -0.832031 3.90625 -0.960938 4.125 -1.140625 L 4.125 -3.40625 C 4.03125 -3.382812 3.9375 -3.363281 3.84375 -3.34375 C 3.757812 -3.332031 3.660156 -3.316406 3.546875 -3.296875 C 3.128906 -3.191406 2.796875 -3.007812 2.546875 -2.75 C 2.304688 -2.5 2.1875 -2.15625 2.1875 -1.71875 C 2.1875 -1.351562 2.269531 -1.078125 2.4375 -0.890625 C 2.601562 -0.710938 2.8125 -0.625 3.0625 -0.625 Z M 3.0625 -0.625 "/></g></g></g><g fill="#03466e" fill-opacity="1"><g transform="translate(253.123465, 208.760405)"><g><path d="M 1.515625 3.234375 C 1.148438 3.234375 0.863281 3.140625 0.65625 2.953125 C 0.445312 2.773438 0.34375 2.550781 0.34375 2.28125 C 0.34375 2.03125 0.429688 1.828125 0.609375 1.671875 C 0.785156 1.515625 0.988281 1.4375 1.21875 1.4375 C 1.4375 1.4375 1.617188 1.484375 1.765625 1.578125 C 1.921875 1.671875 2.0625 1.8125 2.1875 2 L 2.28125 2.09375 C 2.476562 2.363281 2.675781 2.363281 2.875 2.09375 C 2.945312 1.957031 3.035156 1.773438 3.140625 1.546875 C 3.242188 1.328125 3.363281 1.035156 3.5 0.671875 L 0.890625 -5.578125 C 0.828125 -5.742188 0.757812 -5.878906 0.6875 -5.984375 C 0.613281 -6.085938 0.5 -6.175781 0.34375 -6.25 L 0.09375 -6.34375 L 0.09375 -6.484375 L 3.453125 -6.484375 L 3.453125 -6.359375 L 3.171875 -6.25 C 2.972656 -6.1875 2.875 -6.082031 2.875 -5.9375 C 2.875 -5.800781 2.910156 -5.628906 2.984375 -5.421875 L 4.375 -1.796875 L 5.703125 -5.46875 C 5.773438 -5.675781 5.800781 -5.847656 5.78125 -5.984375 C 5.769531 -6.128906 5.660156 -6.226562 5.453125 -6.28125 L 5.171875 -6.34375 L 5.171875 -6.484375 L 7.046875 -6.484375 L 7.046875 -6.34375 L 6.75 -6.25 C 6.539062 -6.1875 6.394531 -6.097656 6.3125 -5.984375 C 6.238281 -5.867188 6.164062 -5.707031 6.09375 -5.5 L 3.921875 0.421875 C 3.566406 1.359375 3.210938 2.0625 2.859375 2.53125 C 2.515625 3 2.066406 3.234375 1.515625 3.234375 Z M 1.515625 3.234375 "/></g></g></g><g fill="#03466e" fill-opacity="1"><g transform="translate(260.334307, 208.760405)"><g/></g></g><g fill="#03466e" fill-opacity="1"><g transform="translate(263.267073, 208.760405)"><g><path d="M 0.3125 0 L 0.3125 -0.140625 L 0.46875 -0.1875 C 0.789062 -0.289062 0.953125 -0.515625 0.953125 -0.859375 L 0.953125 -8.0625 C 0.953125 -8.25 0.914062 -8.390625 0.84375 -8.484375 C 0.769531 -8.578125 0.644531 -8.644531 0.46875 -8.6875 L 0.296875 -8.734375 L 0.296875 -8.859375 L 2.765625 -9.4375 L 2.921875 -9.328125 L 2.875 -7.4375 L 2.875 -2.828125 C 2.875 -2.492188 2.875 -2.160156 2.875 -1.828125 C 2.875 -1.503906 2.875 -1.179688 2.875 -0.859375 C 2.875 -0.679688 2.910156 -0.535156 2.984375 -0.421875 C 3.054688 -0.304688 3.179688 -0.222656 3.359375 -0.171875 L 3.53125 -0.140625 L 3.53125 0 Z M 0.3125 0 "/></g></g></g><g fill="#03466e" fill-opacity="1"><g transform="translate(267.114645, 208.760405)"><g><path d="M 3.65625 -6.6875 C 4.238281 -6.6875 4.734375 -6.566406 5.140625 -6.328125 C 5.554688 -6.085938 5.875 -5.757812 6.09375 -5.34375 C 6.3125 -4.9375 6.421875 -4.472656 6.421875 -3.953125 C 6.421875 -3.859375 6.414062 -3.757812 6.40625 -3.65625 C 6.394531 -3.550781 6.378906 -3.457031 6.359375 -3.375 L 2.34375 -3.375 C 2.351562 -2.40625 2.523438 -1.707031 2.859375 -1.28125 C 3.191406 -0.851562 3.691406 -0.640625 4.359375 -0.640625 C 4.804688 -0.640625 5.171875 -0.710938 5.453125 -0.859375 C 5.734375 -1.003906 5.992188 -1.21875 6.234375 -1.5 L 6.375 -1.375 C 6.09375 -0.882812 5.71875 -0.5 5.25 -0.21875 C 4.789062 0.0625 4.238281 0.203125 3.59375 0.203125 C 2.957031 0.203125 2.390625 0.0664062 1.890625 -0.203125 C 1.398438 -0.484375 1.015625 -0.878906 0.734375 -1.390625 C 0.460938 -1.898438 0.328125 -2.507812 0.328125 -3.21875 C 0.328125 -3.957031 0.488281 -4.582031 0.8125 -5.09375 C 1.132812 -5.613281 1.546875 -6.007812 2.046875 -6.28125 C 2.554688 -6.550781 3.09375 -6.6875 3.65625 -6.6875 Z M 3.609375 -6.40625 C 3.347656 -6.40625 3.125 -6.328125 2.9375 -6.171875 C 2.757812 -6.015625 2.617188 -5.734375 2.515625 -5.328125 C 2.410156 -4.929688 2.351562 -4.375 2.34375 -3.65625 L 4.640625 -3.65625 C 4.734375 -4.632812 4.695312 -5.335938 4.53125 -5.765625 C 4.375 -6.191406 4.066406 -6.40625 3.609375 -6.40625 Z M 3.609375 -6.40625 "/></g></g></g><g fill="#03466e" fill-opacity="1"><g transform="translate(273.935346, 208.760405)"><g><path d="M 2.59375 0.203125 C 2.15625 0.203125 1.757812 0.148438 1.40625 0.046875 C 1.0625 -0.0546875 0.738281 -0.1875 0.4375 -0.34375 L 0.453125 -1.9375 L 0.59375 -1.9375 L 1.046875 -1.125 C 1.242188 -0.769531 1.460938 -0.503906 1.703125 -0.328125 C 1.941406 -0.148438 2.242188 -0.0625 2.609375 -0.0625 C 3.046875 -0.0625 3.394531 -0.15625 3.65625 -0.34375 C 3.914062 -0.539062 4.046875 -0.800781 4.046875 -1.125 C 4.046875 -1.425781 3.953125 -1.671875 3.765625 -1.859375 C 3.578125 -2.046875 3.226562 -2.21875 2.71875 -2.375 L 2.15625 -2.546875 C 1.601562 -2.703125 1.171875 -2.953125 0.859375 -3.296875 C 0.546875 -3.640625 0.390625 -4.054688 0.390625 -4.546875 C 0.390625 -5.140625 0.625 -5.644531 1.09375 -6.0625 C 1.5625 -6.476562 2.226562 -6.6875 3.09375 -6.6875 C 3.445312 -6.6875 3.773438 -6.644531 4.078125 -6.5625 C 4.390625 -6.488281 4.691406 -6.375 4.984375 -6.21875 L 4.90625 -4.765625 L 4.765625 -4.765625 L 4.296875 -5.609375 C 4.128906 -5.898438 3.960938 -6.101562 3.796875 -6.21875 C 3.628906 -6.34375 3.378906 -6.40625 3.046875 -6.40625 C 2.742188 -6.40625 2.457031 -6.320312 2.1875 -6.15625 C 1.914062 -5.988281 1.78125 -5.742188 1.78125 -5.421875 C 1.78125 -5.117188 1.894531 -4.878906 2.125 -4.703125 C 2.351562 -4.523438 2.691406 -4.359375 3.140625 -4.203125 L 3.75 -4.03125 C 4.394531 -3.832031 4.851562 -3.554688 5.125 -3.203125 C 5.40625 -2.859375 5.546875 -2.445312 5.546875 -1.96875 C 5.546875 -1.3125 5.285156 -0.785156 4.765625 -0.390625 C 4.253906 0.00390625 3.53125 0.203125 2.59375 0.203125 Z M 2.59375 0.203125 "/></g></g></g><g fill="#03466e" fill-opacity="1"><g transform="translate(279.800878, 208.760405)"><g><path d="M 2.59375 0.203125 C 2.15625 0.203125 1.757812 0.148438 1.40625 0.046875 C 1.0625 -0.0546875 0.738281 -0.1875 0.4375 -0.34375 L 0.453125 -1.9375 L 0.59375 -1.9375 L 1.046875 -1.125 C 1.242188 -0.769531 1.460938 -0.503906 1.703125 -0.328125 C 1.941406 -0.148438 2.242188 -0.0625 2.609375 -0.0625 C 3.046875 -0.0625 3.394531 -0.15625 3.65625 -0.34375 C 3.914062 -0.539062 4.046875 -0.800781 4.046875 -1.125 C 4.046875 -1.425781 3.953125 -1.671875 3.765625 -1.859375 C 3.578125 -2.046875 3.226562 -2.21875 2.71875 -2.375 L 2.15625 -2.546875 C 1.601562 -2.703125 1.171875 -2.953125 0.859375 -3.296875 C 0.546875 -3.640625 0.390625 -4.054688 0.390625 -4.546875 C 0.390625 -5.140625 0.625 -5.644531 1.09375 -6.0625 C 1.5625 -6.476562 2.226562 -6.6875 3.09375 -6.6875 C 3.445312 -6.6875 3.773438 -6.644531 4.078125 -6.5625 C 4.390625 -6.488281 4.691406 -6.375 4.984375 -6.21875 L 4.90625 -4.765625 L 4.765625 -4.765625 L 4.296875 -5.609375 C 4.128906 -5.898438 3.960938 -6.101562 3.796875 -6.21875 C 3.628906 -6.34375 3.378906 -6.40625 3.046875 -6.40625 C 2.742188 -6.40625 2.457031 -6.320312 2.1875 -6.15625 C 1.914062 -5.988281 1.78125 -5.742188 1.78125 -5.421875 C 1.78125 -5.117188 1.894531 -4.878906 2.125 -4.703125 C 2.351562 -4.523438 2.691406 -4.359375 3.140625 -4.203125 L 3.75 -4.03125 C 4.394531 -3.832031 4.851562 -3.554688 5.125 -3.203125 C 5.40625 -2.859375 5.546875 -2.445312 5.546875 -1.96875 C 5.546875 -1.3125 5.285156 -0.785156 4.765625 -0.390625 C 4.253906 0.00390625 3.53125 0.203125 2.59375 0.203125 Z M 2.59375 0.203125 "/></g></g></g></svg>