<svg xmlns="http://www.w3.org/2000/svg" xmlns:xlink="http://www.w3.org/1999/xlink" width="500" zoomAndPan="magnify" viewBox="0 0 375 374.999991" height="500" preserveAspectRatio="xMidYMid meet" version="1.0"><defs><g/></defs><path fill="#ed0d91" d="M 330.042969 137.058594 C 330.054688 137.078125 330.070312 137.101562 330.089844 137.132812 C 330.070312 137.101562 330.054688 137.078125 330.042969 137.058594 Z M 356.734375 101.042969 C 352.542969 99.027344 347.503906 100.789062 345.484375 104.972656 L 330.023438 137.03125 C 330.023438 137.03125 330.027344 137.039062 330.039062 137.058594 C 330.027344 137.039062 330.023438 137.03125 330.023438 137.03125 L 321.519531 128.558594 C 310.859375 117.9375 293.527344 117.953125 282.882812 128.589844 C 272.238281 139.226562 272.25 156.519531 282.910156 167.140625 L 308.421875 192.558594 C 311.714844 195.839844 317.054688 195.839844 320.34375 192.550781 C 323.632812 189.265625 323.628906 183.9375 320.332031 180.65625 L 294.824219 155.238281 C 290.742188 151.171875 290.734375 144.546875 294.8125 140.472656 C 298.886719 136.402344 305.527344 136.394531 309.609375 140.460938 L 326.511719 157.304688 C 328.445312 159.230469 331.191406 160.105469 333.882812 159.644531 C 336.578125 159.1875 338.878906 157.457031 340.0625 155.003906 L 349.664062 135.09375 L 360.675781 112.269531 C 362.695312 108.085938 360.929688 103.058594 356.734375 101.042969 " fill-opacity="1" fill-rule="nonzero"/><path fill="#9b176a" d="M 356.734375 101.042969 C 352.542969 99.027344 347.503906 100.789062 345.484375 104.972656 L 330.023438 137.03125 C 330.023438 137.03125 337.410156 145.714844 344.527344 140.609375 C 346.164062 139.4375 347.890625 137.660156 349.664062 135.09375 L 360.675781 112.269531 C 362.695312 108.085938 360.929688 103.058594 356.734375 101.042969 " fill-opacity="1" fill-rule="nonzero"/><path fill="#00adef" d="M 286.664062 197.503906 C 286.652344 197.488281 286.632812 197.460938 286.613281 197.429688 C 286.632812 197.460938 286.652344 197.488281 286.664062 197.503906 Z M 259.96875 233.519531 C 264.164062 235.535156 269.199219 233.777344 271.21875 229.589844 L 286.679688 197.53125 C 286.679688 197.53125 286.675781 197.523438 286.664062 197.507812 C 286.675781 197.523438 286.679688 197.53125 286.679688 197.53125 L 295.183594 206.003906 C 305.84375 216.625 323.175781 216.613281 333.820312 205.976562 C 344.464844 195.339844 344.453125 178.042969 333.792969 167.421875 L 308.28125 142.003906 C 304.988281 138.722656 299.652344 138.726562 296.363281 142.011719 C 293.070312 145.300781 293.074219 150.625 296.371094 153.90625 L 321.878906 179.324219 C 325.960938 183.390625 325.96875 190.015625 321.890625 194.089844 C 317.816406 198.164062 311.175781 198.167969 307.09375 194.101562 L 290.191406 177.257812 C 288.257812 175.332031 285.511719 174.460938 282.820312 174.917969 C 280.128906 175.375 277.824219 177.105469 276.640625 179.5625 L 267.039062 199.46875 L 256.027344 222.292969 C 254.011719 226.480469 255.773438 231.507812 259.96875 233.519531 " fill-opacity="1" fill-rule="nonzero"/><path fill="#03466e" d="M 259.96875 233.519531 C 264.164062 235.535156 269.199219 233.777344 271.21875 229.589844 L 286.679688 197.53125 C 286.679688 197.53125 279.296875 188.847656 272.179688 193.957031 C 270.539062 195.128906 268.8125 196.902344 267.039062 199.46875 L 256.027344 222.292969 C 254.011719 226.480469 255.773438 231.507812 259.96875 233.519531 " fill-opacity="1" fill-rule="nonzero"/><g fill="#ed0d91" fill-opacity="1"><g transform="translate(98.260003, 177.400008)"><g><path d="M 10.402344 0.0351562 C 11.96875 0.136719 13.699219 -0.304688 15.367188 -0.953125 C 17.578125 -1.769531 19.652344 -3.195312 20.160156 -5.574219 C 20.671875 -7.207031 20.332031 -9.347656 19.921875 -11.082031 C 19.480469 -13.15625 18.9375 -13.328125 18.257812 -14.144531 C 17.949219 -14.617188 17.476562 -14.722656 16.625 -14.3125 C 15.605469 -13.804688 15.707031 -12.917969 16.386719 -11.289062 C 16.863281 -10.027344 17.101562 -8.941406 17.371094 -7.75 C 17.710938 -6.628906 17.101562 -5.101562 15.707031 -4.726562 C 14.890625 -4.488281 14.484375 -3.707031 13.429688 -3.5 C 11.117188 -3.058594 8.601562 -3.058594 6.800781 -3.398438 C 5.847656 -3.570312 5.203125 -4.386719 4.757812 -5.101562 C 3.976562 -6.628906 4.996094 -8.160156 6.1875 -8.769531 C 7.308594 -9.347656 8.089844 -10.84375 7.546875 -11.628906 C 7.070312 -12.308594 6.359375 -12.101562 5.335938 -11.933594 C 4.65625 -11.832031 4.351562 -11.421875 3.636719 -10.945312 C 2.515625 -10.199219 1.902344 -9.347656 1.597656 -8.261719 C 0.984375 -6.1875 1.597656 -3.808594 3.332031 -2.140625 C 4.046875 -0.304688 7.648438 0.101562 10.402344 0.0351562 Z M 10.402344 5.949219 C 11.492188 5.949219 12.171875 5.203125 12.339844 4.386719 C 12.511719 3.367188 11.355469 2.515625 10.710938 2.378906 C 9.621094 2.140625 8.90625 3.027344 8.804688 3.875 C 8.703125 4.757812 9.214844 5.8125 10.402344 5.949219 Z M 10.402344 5.949219 "/></g></g></g><g fill="#ed0d91" fill-opacity="1"><g transform="translate(120.017509, 177.400008)"><g><path d="M 0.984375 7.957031 C 2.753906 8.058594 5.269531 7.003906 7.207031 5.304688 C 8.738281 3.945312 9.554688 2.3125 10.402344 1.054688 C 10.8125 0.375 11.015625 -0.0351562 11.117188 -0.375 C 11.558594 -0.238281 12.714844 0 13.667969 0 C 14.007812 0 14.347656 -0.882812 14.347656 -1.5625 C 14.347656 -2.175781 14.007812 -3.09375 13.667969 -3.09375 C 13.019531 -3.160156 12.679688 -3.230469 11.863281 -3.46875 C 12.171875 -4.214844 12.375 -5.984375 12.410156 -6.492188 C 12.511719 -8.195312 12 -9.824219 11.152344 -11.289062 C 9.792969 -13.667969 6.96875 -14.347656 4.65625 -12.917969 C 2.855469 -11.863281 1.394531 -9.894531 1.394531 -7.921875 C 1.394531 -6.222656 1.972656 -4.148438 3.46875 -2.617188 C 4.453125 -1.632812 6.933594 -1.222656 7.988281 -0.917969 C 7.410156 0.238281 7.070312 1.460938 5.8125 2.582031 C 5.066406 3.265625 4.046875 4.148438 2.617188 4.523438 C 0.746094 5.132812 -1.019531 5.269531 -1.019531 6.460938 C -1.019531 7.410156 0 7.886719 0.984375 7.957031 Z M 8.804688 -3.976562 C 7.511719 -4.316406 6.121094 -4.351562 5.335938 -5.167969 C 4.589844 -5.914062 4.488281 -7.105469 4.726562 -7.988281 C 4.964844 -8.875 6.390625 -10.914062 7.820312 -10.371094 C 9.585938 -8.804688 9.554688 -6.492188 8.804688 -3.976562 Z M 8.804688 -3.976562 "/></g></g></g><g fill="#ed0d91" fill-opacity="1"><g transform="translate(133.717939, 177.400008)"><g><path d="M 14.3125 -19.515625 C 15.195312 -19.515625 15.742188 -20.125 15.910156 -20.804688 C 16.082031 -21.621094 15.09375 -22.335938 14.585938 -22.4375 C 13.667969 -22.640625 13.089844 -21.929688 13.019531 -21.214844 C 12.953125 -20.5 13.359375 -19.617188 14.3125 -19.515625 Z M 12.511719 -16.320312 C 13.429688 -16.320312 14.414062 -16.964844 14.414062 -17.679688 C 14.414062 -18.222656 14.074219 -18.835938 12.851562 -19.480469 C 12.816406 -19.515625 12.679688 -19.617188 12.375 -19.617188 C 12.070312 -19.617188 11.628906 -19.445312 11.117188 -18.835938 C 10.878906 -18.222656 10.84375 -17.78125 10.84375 -17.40625 C 10.84375 -16.558594 11.695312 -16.320312 12.511719 -16.320312 Z M 15.195312 -16.558594 C 16.421875 -15.503906 17.882812 -17.167969 17.816406 -18.425781 C 17.816406 -19.105469 17.304688 -19.617188 16.011719 -19.445312 C 15.265625 -19.515625 14.550781 -18.734375 14.515625 -17.847656 C 14.515625 -17.40625 14.722656 -16.929688 15.195312 -16.558594 Z M 12.714844 0.101562 C 14.175781 0.101562 15.605469 -0.578125 16.421875 -1.597656 C 16.726562 -1.972656 16.828125 -2.277344 17.03125 -2.3125 C 17.132812 -2.3125 17.238281 -2.277344 17.40625 -2.175781 C 17.847656 -1.902344 18.664062 -1.359375 19.175781 -1.191406 C 20.671875 -0.78125 22.675781 -0.441406 23.832031 -1.597656 C 24.375 -2.140625 24.988281 -2.582031 25.667969 -3.5 C 26.484375 -4.625 26.519531 -6.902344 26.382812 -7.820312 C 26.210938 -9.113281 26.042969 -11.59375 25.191406 -12.714844 C 24.445312 -13.734375 24.003906 -14.007812 23.289062 -14.824219 C 22.609375 -15.605469 21.691406 -15.332031 21.113281 -14.890625 C 20.363281 -14.3125 20.398438 -13.464844 21.382812 -12 C 22.234375 -10.777344 22.847656 -10.132812 23.253906 -8.667969 C 23.425781 -7.988281 23.289062 -5.984375 22.847656 -5.472656 C 21.589844 -3.296875 19.820312 -4.453125 19.207031 -4.863281 C 18.664062 -5.03125 17.949219 -6.222656 17.476562 -7.480469 C 16.828125 -9.042969 16.691406 -11.117188 15.808594 -12.511719 C 14.957031 -13.699219 14.109375 -13.734375 13.292969 -13.328125 C 12.511719 -12.953125 12.308594 -11.933594 13.089844 -10.027344 C 14.753906 -7.957031 14.753906 -4.929688 14.484375 -4.386719 C 14.109375 -3.5 13.667969 -3.09375 12.101562 -3.09375 C 10.980469 -3.09375 10.132812 -4.148438 9.757812 -4.726562 C 9.417969 -5.132812 9.316406 -5.949219 8.976562 -7.039062 C 8.601562 -8.296875 8.566406 -10.132812 8.429688 -10.710938 C 8.160156 -11.898438 8.363281 -12.988281 7.039062 -13.054688 C 6.460938 -13.121094 5.882812 -12.648438 5.609375 -12.273438 C 5.40625 -12.035156 5.40625 -11.832031 5.371094 -11.523438 C 4.996094 -8.535156 5.371094 -4.996094 2.347656 -3.839844 C 1.734375 -3.570312 1.191406 -3.09375 0 -3.09375 C -0.339844 -3.09375 -0.679688 -2.210938 -0.679688 -1.53125 C -0.679688 -0.882812 -0.339844 0 0 0 C 1.121094 0 2.3125 -0.203125 3.367188 -0.816406 C 4.148438 -1.292969 4.691406 -1.429688 5.269531 -2.109375 C 5.949219 -2.890625 6.460938 -3.839844 6.628906 -4.386719 C 6.664062 -3.738281 6.96875 -2.753906 7.242188 -2.449219 C 8.703125 -0.984375 10.675781 0.101562 12.714844 0.101562 Z M 12.714844 0.101562 "/></g></g></g><g fill="#ed0d91" fill-opacity="1"><g transform="translate(161.526749, 177.400008)"><g/></g></g><g fill="#ed0d91" fill-opacity="1"><g transform="translate(169.175876, 177.400008)"><g><path d="M 8.363281 0 C 8.703125 0 9.042969 -0.882812 9.042969 -1.53125 C 9.042969 -2.210938 8.703125 -3.09375 8.363281 -3.09375 C 7.207031 -3.09375 5.066406 -3.738281 4.863281 -5.472656 C 4.589844 -7.683594 4.828125 -9.214844 4.691406 -11.355469 C 4.625 -12.613281 4.011719 -16.148438 4.351562 -20.839844 C 4.523438 -23.085938 4.113281 -23.898438 3.808594 -24.511719 C 3.46875 -25.023438 3.433594 -25.191406 2.550781 -25.261719 C 1.429688 -25.328125 1.496094 -24.273438 1.429688 -23.21875 C 1.324219 -22.472656 1.324219 -20.023438 1.429688 -18.96875 C 1.734375 -15.910156 1.597656 -14.824219 1.699219 -11.320312 C 1.734375 -10.027344 1.664062 -8.804688 1.734375 -7.582031 C 1.699219 -5.167969 2.210938 -3.773438 2.890625 -2.414062 C 3.875 -0.476562 5.371094 0 8.363281 0 Z M 8.363281 0 "/></g></g></g><g fill="#ed0d91" fill-opacity="1"><g transform="translate(177.572909, 177.400008)"><g><path d="M 9.144531 1.699219 C 12.035156 1.734375 13.089844 0.511719 14.890625 -1.019531 C 15.402344 -1.460938 15.402344 -1.664062 15.671875 -1.835938 C 15.808594 -1.835938 16.386719 -1.089844 16.660156 -0.882812 C 17.476562 -0.304688 18.394531 0 19.683594 0 C 20.023438 0 20.363281 -0.882812 20.363281 -1.53125 C 20.363281 -2.210938 20.023438 -3.09375 19.683594 -3.09375 C 18.699219 -3.09375 17.304688 -4.285156 16.761719 -5.234375 C 16.25 -6.359375 16.660156 -8.261719 15.332031 -10.199219 C 14.925781 -10.8125 14.484375 -11.390625 13.90625 -11.863281 C 13.121094 -12.511719 12.238281 -12.988281 11.183594 -12.613281 C 10.8125 -12.476562 10.472656 -12.511719 10.097656 -12.679688 C 9.246094 -13.054688 8.464844 -12.714844 7.75 -12.171875 C 6.527344 -11.253906 5.847656 -10.539062 4.757812 -9.246094 C 3.605469 -8.328125 3.367188 -6.253906 2.921875 -5.132812 C 2.378906 -3.671875 1.734375 -3.09375 0 -3.09375 C -0.339844 -3.09375 -0.679688 -2.210938 -0.679688 -1.53125 C -0.679688 -0.882812 -0.339844 0 0 0 C 1.597656 0 2.6875 -0.273438 3.535156 -0.644531 C 4.183594 -0.953125 4.011719 -1.191406 4.453125 -0.613281 C 5.8125 1.054688 7.277344 1.972656 9.144531 1.699219 Z M 7.410156 -1.699219 C 6.1875 -2.378906 5.441406 -2.957031 5.949219 -4.453125 C 6.902344 -7.308594 7.648438 -8.566406 9.859375 -9.824219 C 10.199219 -10.027344 11.457031 -9.65625 11.730469 -9.417969 C 12.851562 -8.667969 13.566406 -7.683594 13.597656 -6.222656 C 13.667969 -2.789062 9.925781 -0.375 7.410156 -1.699219 Z M 7.410156 -1.699219 "/></g></g></g><g fill="#ed0d91" fill-opacity="1"><g transform="translate(197.256654, 177.400008)"><g><path d="M 0 0 C 2.347656 0 3.195312 -0.441406 4.488281 -0.984375 C 7.71875 -1.429688 10.132812 -2.921875 12.578125 -4.691406 C 13.019531 -4.996094 13.429688 -5.269531 14.175781 -5.335938 C 14.347656 -4.554688 14.824219 -3.945312 15.265625 -3.296875 C 16.421875 -1.632812 17.710938 -0.746094 19.785156 -0.171875 C 20.125 -0.0664062 20.839844 0 21.65625 0 C 21.996094 0 22.335938 -0.882812 22.335938 -1.53125 C 22.335938 -2.210938 21.996094 -3.09375 21.65625 -3.09375 C 19.414062 -2.957031 17.507812 -5.371094 17.03125 -6.902344 C 17.371094 -7.140625 17.679688 -7.308594 18.019531 -7.511719 C 18.835938 -8.023438 21.042969 -8.941406 20.839844 -9.925781 C 20.839844 -10.878906 20.464844 -11.660156 19.71875 -11.898438 C 19.140625 -12.101562 18.050781 -12.136719 17.476562 -12.441406 C 15.195312 -13.734375 13.292969 -13.769531 11.117188 -14.957031 C 9.859375 -15.605469 8.429688 -16.488281 7.207031 -16.660156 C 4.792969 -17.949219 2.820312 -16.863281 1.191406 -15.230469 C 0.613281 -14.6875 0.101562 -13.734375 0.679688 -13.054688 C 1.53125 -12.070312 3.160156 -13.328125 4.25 -13.835938 C 4.996094 -14.175781 6.59375 -13.496094 7.277344 -13.121094 C 8.90625 -11.695312 13.191406 -11.320312 15.433594 -9.6875 C 12.988281 -8.667969 8.941406 -6.460938 7.71875 -5.441406 C 6.59375 -4.554688 5.574219 -4.625 4.453125 -4.183594 C 2.855469 -3.535156 2.515625 -3.09375 0 -3.09375 C -0.339844 -3.09375 -0.679688 -2.210938 -0.679688 -1.53125 C -0.679688 -0.882812 -0.339844 0 0 0 Z M 12.238281 2.277344 C 13.429688 2.277344 14.144531 1.429688 14.347656 0.511719 C 14.550781 -0.542969 13.257812 -1.496094 12.578125 -1.664062 C 11.390625 -1.902344 10.605469 -0.953125 10.503906 0 C 10.402344 0.953125 10.945312 2.109375 12.238281 2.277344 Z M 12.238281 2.277344 "/></g></g></g><g fill="#ed0d91" fill-opacity="1"><g transform="translate(218.91217, 177.400008)"><g><path d="M 0 0 C 1.359375 0 2.003906 -0.339844 2.550781 -0.511719 C 3.398438 -0.78125 4.183594 -0.953125 4.929688 -1.324219 C 6.1875 -1.972656 6.933594 -2.582031 7.546875 -3.433594 C 7.921875 -3.910156 8.125 -4.996094 8.328125 -4.996094 C 8.535156 -4.996094 8.601562 -4.148438 8.875 -3.671875 C 9.621094 -2.449219 10.503906 -1.15625 12.035156 -0.542969 C 13.121094 -0.136719 14.722656 0.0351562 15.671875 0 C 16.011719 0 16.351562 -0.882812 16.351562 -1.5625 C 16.351562 -2.210938 16.011719 -3.09375 15.671875 -3.09375 C 15.164062 -3.09375 13.328125 -3.570312 12.816406 -3.839844 C 12.035156 -4.316406 11.320312 -4.894531 10.878906 -6.121094 C 10.4375 -7.648438 10.132812 -10.640625 10.0625 -11.660156 C 9.996094 -12.917969 9.484375 -13.667969 8.464844 -13.667969 C 7.851562 -13.667969 7.511719 -13.019531 7.34375 -12.714844 C 6.253906 -10.945312 7.207031 -6.121094 4.285156 -4.453125 C 3.738281 -4.148438 2.347656 -3.5 1.835938 -3.367188 C 1.664062 -3.332031 0.851562 -3.09375 0 -3.09375 C -0.339844 -3.09375 -0.679688 -2.210938 -0.679688 -1.5625 C -0.679688 -0.882812 -0.339844 0 0 0 Z M 6.253906 4.488281 C 7.207031 4.488281 8.261719 3.839844 8.261719 3.058594 C 8.261719 2.449219 7.886719 1.800781 6.59375 1.121094 C 6.5625 1.089844 6.390625 0.984375 6.085938 0.984375 C 5.78125 0.984375 5.304688 1.15625 4.792969 1.835938 C 4.523438 2.449219 4.453125 2.957031 4.453125 3.332031 C 4.453125 4.214844 5.40625 4.488281 6.253906 4.488281 Z M 9.078125 4.214844 C 10.402344 5.371094 11.96875 3.570312 11.863281 2.277344 C 11.832031 1.5625 11.355469 0.984375 9.996094 1.15625 C 9.144531 1.089844 8.398438 1.9375 8.363281 2.855469 C 8.363281 3.332031 8.566406 3.839844 9.078125 4.214844 Z M 9.078125 4.214844 "/></g></g></g><g fill="#ed0d91" fill-opacity="1"><g transform="translate(234.584372, 177.400008)"><g><path d="M 12.339844 0.644531 C 14.175781 0.714844 16.046875 -0.816406 17.339844 -1.972656 C 17.679688 -1.9375 18.085938 -1.089844 18.324219 -0.917969 C 19.3125 -0.171875 20.363281 0.203125 21.351562 0.203125 C 22.949219 0.203125 24.375 -0.78125 25.089844 -2.6875 C 25.429688 -3.027344 25.566406 -3.976562 25.292969 -5.746094 C 25.023438 -7.546875 24.988281 -9.824219 24.511719 -11.558594 C 24.105469 -13.089844 23.355469 -13.835938 22.777344 -14.382812 C 22.640625 -14.484375 22.539062 -14.585938 22.40625 -14.652344 C 21.960938 -14.992188 21.488281 -14.992188 21.144531 -14.789062 C 20.601562 -14.484375 20.570312 -13.566406 20.804688 -12.648438 C 20.941406 -12.070312 21.113281 -11.457031 21.453125 -10.945312 C 22.167969 -9.792969 23.152344 -4.046875 21.519531 -3.160156 C 20.941406 -3.128906 20.535156 -3.5 20.296875 -3.738281 C 18.628906 -5.132812 17.441406 -7.070312 16.351562 -12.339844 C 15.945312 -13.632812 15.128906 -13.769531 14.449219 -13.632812 C 13.566406 -13.464844 13.191406 -12.476562 13.226562 -11.457031 C 13.359375 -9.144531 14.925781 -7.582031 14.957031 -6.121094 C 15.0625 -5.304688 15.265625 -4.316406 14.789062 -3.433594 C 14.277344 -2.789062 13.121094 -2.449219 12.171875 -2.550781 C 11.21875 -2.6875 10.300781 -3.5 10.164062 -3.738281 C 8.226562 -6.527344 8.261719 -9.214844 8.363281 -10.300781 C 8.566406 -12.441406 8.125 -13.597656 7.070312 -13.566406 C 6.015625 -13.566406 5.609375 -12.171875 5.167969 -10.742188 C 4.996094 -10.234375 4.894531 -9.6875 4.828125 -9.246094 C 4.828125 -8.667969 4.757812 -5.371094 3.398438 -4.285156 C 2.550781 -3.636719 1.460938 -3.09375 0 -3.09375 C -0.339844 -3.09375 -0.679688 -2.210938 -0.679688 -1.5625 C -0.679688 -0.882812 -0.339844 0 0 0 C 2.820312 0 4.011719 -0.40625 5.066406 -1.460938 C 5.441406 -1.835938 6.222656 -3.230469 6.628906 -3.570312 C 7.582031 -0.882812 9.65625 0.578125 12.339844 0.644531 Z M 12.339844 0.644531 "/></g></g></g><g fill="#03466e" fill-opacity="1"><g transform="translate(138.829858, 202.474674)"><g><path d="M 3.503906 2.355469 C 5.125 2.355469 5.785156 1.257812 5.882812 -0.386719 C 6.308594 -0.0742188 6.65625 0 6.929688 0 C 7.054688 0 7.179688 -0.324219 7.179688 -0.546875 C 7.179688 -0.773438 7.054688 -1.097656 6.929688 -1.097656 C 6.40625 -1.097656 5.894531 -1.359375 5.882812 -2.320312 L 5.832031 -8.089844 L 4.25 -8.949219 L 5.035156 -1.296875 C 5.160156 -0.0859375 4.710938 1.023438 3.140625 1.023438 C 1.871094 1.023438 1.296875 0.160156 1.296875 -0.722656 C 1.296875 -1.210938 1.53125 -1.746094 1.980469 -2.117188 L 1.832031 -2.90625 C 0.871094 -2.195312 0.5 -1.445312 0.5 -0.484375 C 0.5 1.269531 1.769531 2.355469 3.503906 2.355469 Z M 3.503906 2.355469 "/></g></g></g><g fill="#03466e" fill-opacity="1"><g transform="translate(145.755994, 202.474674)"><g><path d="M 2.417969 -7.390625 C 2.703125 -7.390625 2.941406 -7.554688 3.042969 -7.789062 C 3.152344 -7.554688 3.390625 -7.390625 3.664062 -7.390625 C 4.039062 -7.390625 4.351562 -7.691406 4.351562 -8.066406 C 4.351562 -8.453125 4.039062 -8.75 3.664062 -8.75 C 3.390625 -8.75 3.152344 -8.589844 3.042969 -8.351562 C 2.941406 -8.589844 2.703125 -8.75 2.417969 -8.75 C 2.042969 -8.75 1.746094 -8.453125 1.746094 -8.066406 C 1.746094 -7.691406 2.042969 -7.390625 2.417969 -7.390625 Z M 0 0 C 0.835938 0 2.691406 -0.335938 3.589844 -0.6875 C 4.921875 -1.195312 5.921875 -2.195312 5.921875 -3.726562 C 5.921875 -5.398438 4.710938 -6.730469 3.203125 -6.730469 C 1.707031 -6.730469 0.5 -5.621094 0.5 -3.890625 C 0.5 -3.179688 0.871094 -1.90625 2.03125 -1.507812 L 2.03125 -1.472656 C 1.59375 -1.296875 0.761719 -1.097656 0 -1.097656 C -0.125 -1.097656 -0.25 -0.773438 -0.25 -0.546875 C -0.25 -0.324219 -0.125 0 0 0 Z M 3.203125 -2.007812 C 2.269531 -2.007812 1.53125 -2.742188 1.53125 -3.675781 C 1.53125 -4.597656 2.269531 -5.371094 3.203125 -5.371094 C 4.125 -5.371094 4.863281 -4.597656 4.863281 -3.675781 C 4.863281 -2.742188 4.125 -2.007812 3.203125 -2.007812 Z M 3.203125 -2.007812 "/></g></g></g><g fill="#03466e" fill-opacity="1"><g transform="translate(152.171391, 202.474674)"><g><path d="M 2.269531 -8.3125 L 2.441406 -8.835938 C 2.46875 -8.988281 2.28125 -8.960938 2.09375 -8.9375 L 1.734375 -8.914062 C 1.394531 -8.898438 0.625 -8.898438 0.625 -9.25 C 0.625 -9.609375 1.410156 -10.085938 1.832031 -9.511719 L 1.90625 -9.523438 C 1.996094 -9.636719 2.195312 -10.058594 2.242188 -10.195312 C 2.207031 -10.445312 1.484375 -10.695312 0.824219 -10.296875 C 0.273438 -9.984375 -0.0742188 -9.3125 0.0859375 -8.824219 C 0.199219 -8.5 0.511719 -8.339844 0.835938 -8.300781 L 0.835938 -8.289062 L 0.0507812 -8.128906 L 0 -7.378906 L 0.0859375 -7.34375 Z M 1.132812 -0.0625 L 1.644531 -1.820312 L 1.882812 -7.617188 L 0.5 -6.832031 L 0.984375 -0.0625 Z M 1.132812 -0.0625 "/></g></g></g><g fill="#03466e" fill-opacity="1"><g transform="translate(154.550686, 202.474674)"><g/></g></g><g fill="#03466e" fill-opacity="1"><g transform="translate(156.792961, 202.474674)"><g><path d="M 5.535156 1.433594 L 5.535156 1.246094 C 4.386719 1.148438 1.917969 0.886719 2.519531 -0.546875 C 2.71875 -1.023438 3.339844 -1.421875 4.0625 -1.832031 C 5.046875 -0.859375 6.132812 0 7.679688 0 C 7.804688 0 7.929688 -0.324219 7.929688 -0.546875 C 7.929688 -0.773438 7.804688 -1.097656 7.679688 -1.097656 C 6.667969 -1.097656 5.796875 -1.632812 4.972656 -2.34375 C 6.308594 -3.078125 7.566406 -3.914062 7.09375 -5.210938 C 6.71875 -6.234375 5.769531 -6.457031 5.085938 -6.40625 C 4.261719 -6.34375 2.457031 -6.15625 0.5 -5.882812 L 1.085938 -4.523438 C 1.632812 -4.585938 2.34375 -3.691406 3.265625 -2.679688 C 2.320312 -2.09375 1.519531 -1.320312 1.519531 -0.160156 C 1.519531 1.519531 2.953125 2.378906 4.335938 2.378906 Z M 4.101562 -3.152344 C 3.414062 -3.8125 3.191406 -4.300781 2.457031 -4.9375 L 4.636719 -5.210938 C 5.445312 -5.308594 6.132812 -5.335938 6.269531 -5.011719 C 6.605469 -4.164062 4.625 -3.414062 4.101562 -3.152344 Z M 4.101562 -3.152344 "/></g></g></g><g fill="#03466e" fill-opacity="1"><g transform="translate(164.466522, 202.474674)"><g><path d="M 3.015625 -7.179688 C 3.414062 -7.179688 3.738281 -7.503906 3.738281 -7.902344 C 3.738281 -8.300781 3.414062 -8.625 3.015625 -8.625 C 2.617188 -8.625 2.292969 -8.300781 2.292969 -7.902344 C 2.292969 -7.503906 2.617188 -7.179688 3.015625 -7.179688 Z M 0 0 C 0.984375 0 2.59375 -0.261719 3.464844 -0.585938 C 5.074219 -1.183594 5.921875 -2.195312 5.921875 -3.726562 C 5.921875 -5.398438 4.710938 -6.730469 3.203125 -6.730469 C 1.707031 -6.730469 0.5 -5.621094 0.5 -3.890625 C 0.5 -2.878906 1.085938 -1.832031 2.042969 -1.445312 L 2.042969 -1.410156 C 1.371094 -1.195312 0.574219 -1.097656 0 -1.097656 C -0.125 -1.097656 -0.25 -0.773438 -0.25 -0.546875 C -0.25 -0.324219 -0.125 0 0 0 Z M 3.203125 -2.007812 C 2.269531 -2.007812 1.53125 -2.742188 1.53125 -3.675781 C 1.53125 -4.597656 2.269531 -5.371094 3.203125 -5.371094 C 4.125 -5.371094 4.863281 -4.597656 4.863281 -3.675781 C 4.863281 -2.742188 4.125 -2.007812 3.203125 -2.007812 Z M 3.203125 -2.007812 "/></g></g></g><g fill="#03466e" fill-opacity="1"><g transform="translate(170.881919, 202.474674)"><g><path d="M 2.605469 0 C 4.722656 0 4.949219 -2.242188 4.824219 -3.601562 C 4.648438 -5.683594 2.867188 -6.667969 2.667969 -6.78125 L 1.78125 -5.648438 L 1.808594 -5.507812 C 2.242188 -5.398438 2.753906 -5.171875 3.289062 -4.5625 C 4.5 -3.167969 4.152344 -1.121094 2.292969 -1.121094 C 1.644531 -1.121094 1.097656 -1.308594 0.859375 -1.769531 L 0.5 -1.371094 C 0.5625 -0.375 1.308594 0 2.605469 0 Z M 2.605469 0 "/></g></g></g><g fill="#03466e" fill-opacity="1"><g transform="translate(176.238463, 202.474674)"><g><path d="M 1.121094 -0.375 L 1.65625 -2.132812 L 1.894531 -9.285156 L 0.5 -8.800781 L 0.972656 -0.375 Z M 1.121094 -0.375 "/></g></g></g><g fill="#03466e" fill-opacity="1"><g transform="translate(178.630221, 202.474674)"><g/></g></g><g fill="#03466e" fill-opacity="1"><g transform="translate(180.872496, 202.474674)"><g><path d="M 1.65625 1.609375 C 1.734375 0.511719 1.65625 -0.699219 2.566406 -1.683594 L 1.855469 -1.644531 C 0.761719 -0.796875 0.375 0.238281 0.375 1.332031 Z M 1.65625 1.609375 "/></g></g></g><g fill="#03466e" fill-opacity="1"><g transform="translate(183.812368, 202.474674)"><g><path d="M 2.605469 0 C 3.515625 0 4.074219 -0.410156 4.414062 -0.996094 C 4.660156 -0.484375 5.085938 0 5.871094 0 C 5.996094 0 6.121094 -0.324219 6.121094 -0.546875 C 6.121094 -0.773438 5.996094 -1.097656 5.871094 -1.097656 C 5.261719 -1.097656 4.847656 -1.507812 4.847656 -2.605469 C 4.910156 -4.363281 4.25 -5.894531 2.667969 -6.78125 L 1.78125 -5.648438 L 1.808594 -5.507812 C 2.242188 -5.398438 2.753906 -5.171875 3.289062 -4.5625 C 4.585938 -3.066406 4.027344 -1.121094 2.292969 -1.121094 C 1.644531 -1.121094 1.097656 -1.308594 0.859375 -1.769531 L 0.5 -1.371094 C 0.5625 -0.375 1.308594 0 2.605469 0 Z M 2.605469 0 "/></g></g></g><g fill="#03466e" fill-opacity="1"><g transform="translate(189.679651, 202.474674)"><g><path d="M 0 0 C 1.609375 0 2.929688 -1.070312 2.929688 -2.617188 L 2.941406 -5.796875 L 1.445312 -5.371094 L 1.71875 -2.40625 C 1.796875 -1.582031 0.960938 -1.097656 0 -1.097656 C -0.125 -1.097656 -0.25 -0.773438 -0.25 -0.546875 C -0.25 -0.324219 -0.125 0 0 0 Z M 1.023438 1.917969 C 1.296875 1.917969 1.53125 1.757812 1.644531 1.519531 C 1.746094 1.757812 1.980469 1.917969 2.269531 1.917969 C 2.644531 1.917969 2.941406 1.621094 2.941406 1.246094 C 2.941406 0.871094 2.644531 0.5625 2.269531 0.5625 C 1.980469 0.5625 1.746094 0.722656 1.644531 0.960938 C 1.53125 0.722656 1.296875 0.5625 1.023438 0.5625 C 0.648438 0.5625 0.335938 0.871094 0.335938 1.246094 C 0.335938 1.621094 0.648438 1.917969 1.023438 1.917969 Z M 1.023438 1.917969 "/></g></g></g><g fill="#03466e" fill-opacity="1"><g transform="translate(193.117799, 202.474674)"><g><path d="M 2.703125 -6.109375 C 3.105469 -6.109375 3.429688 -6.433594 3.429688 -6.832031 C 3.429688 -7.230469 3.105469 -7.554688 2.703125 -7.554688 C 2.304688 -7.554688 1.980469 -7.230469 1.980469 -6.832031 C 1.980469 -6.433594 2.304688 -6.109375 2.703125 -6.109375 Z M 1.195312 2.34375 C 2.304688 2.007812 3.316406 0.808594 3.652344 -0.660156 C 3.777344 -0.335938 4.175781 0 4.75 0 C 4.875 0 5 -0.324219 5 -0.546875 C 5 -0.773438 4.875 -1.097656 4.75 -1.097656 C 4.300781 -1.097656 3.777344 -1.257812 3.789062 -2.378906 L 3.828125 -5.972656 L 2.40625 -5.023438 L 2.953125 -2.230469 C 3.265625 -0.625 1.085938 1.257812 0 1.257812 L 0 1.457031 Z M 1.195312 2.34375 "/></g></g></g><g fill="#03466e" fill-opacity="1"><g transform="translate(197.863938, 202.474674)"><g><path d="M 3.539062 0.175781 C 4.523438 0.175781 5.386719 -0.324219 5.882812 -1.085938 C 6.207031 -0.324219 6.757812 0 7.34375 0 C 7.464844 0 7.589844 -0.324219 7.589844 -0.546875 C 7.589844 -0.773438 7.464844 -1.097656 7.34375 -1.097656 C 6.605469 -1.097656 6.34375 -2.242188 6.34375 -2.867188 C 6.34375 -4.550781 5.085938 -5.921875 3.539062 -5.921875 C 1.996094 -5.921875 0.746094 -4.539062 0.746094 -2.867188 C 0.746094 -2.332031 0.6875 -1.097656 0 -1.097656 C -0.125 -1.097656 -0.25 -0.773438 -0.25 -0.546875 C -0.25 -0.324219 -0.125 0 0 0 C 0.6875 0 1.148438 -0.363281 1.359375 -0.871094 C 1.871094 -0.238281 2.667969 0.175781 3.539062 0.175781 Z M 3.589844 -1.332031 C 2.59375 -1.320312 1.808594 -2.117188 1.808594 -3.117188 C 1.808594 -4.101562 2.59375 -4.910156 3.589844 -4.910156 C 4.574219 -4.910156 5.371094 -4.101562 5.371094 -3.117188 C 5.359375 -2.117188 4.574219 -1.332031 3.589844 -1.332031 Z M 3.589844 -1.332031 "/></g></g></g><g fill="#03466e" fill-opacity="1"><g transform="translate(205.201157, 202.474674)"><g><path d="M 0 0 C 1.023438 0 2.09375 -0.546875 2.179688 -3.105469 L 2.34375 -8.351562 L 0.921875 -9.175781 L 1.085938 -2.429688 C 1.109375 -1.53125 0.824219 -1.097656 0 -1.097656 C -0.125 -1.097656 -0.25 -0.773438 -0.25 -0.546875 C -0.25 -0.324219 -0.125 0 0 0 Z M 0 0 "/></g></g></g><g fill="#03466e" fill-opacity="1"><g transform="translate(208.041375, 202.474674)"><g><path d="M 1.121094 -0.375 L 1.65625 -2.132812 L 1.894531 -9.285156 L 0.5 -8.800781 L 0.972656 -0.375 Z M 1.121094 -0.375 "/></g></g></g><g fill="#03466e" fill-opacity="1"><g transform="translate(210.433132, 202.474674)"><g/></g></g><g fill="#03466e" fill-opacity="1"><g transform="translate(212.675407, 202.474674)"><g><path d="M 5.535156 1.433594 L 5.535156 1.246094 C 4.386719 1.148438 1.917969 0.886719 2.519531 -0.546875 C 2.71875 -1.023438 3.339844 -1.421875 4.0625 -1.832031 C 5.046875 -0.859375 6.132812 0 7.679688 0 C 7.804688 0 7.929688 -0.324219 7.929688 -0.546875 C 7.929688 -0.773438 7.804688 -1.097656 7.679688 -1.097656 C 6.667969 -1.097656 5.796875 -1.632812 4.972656 -2.34375 C 6.308594 -3.078125 7.566406 -3.914062 7.09375 -5.210938 C 6.71875 -6.234375 5.769531 -6.457031 5.085938 -6.40625 C 4.261719 -6.34375 2.457031 -6.15625 0.5 -5.882812 L 1.085938 -4.523438 C 1.632812 -4.585938 2.34375 -3.691406 3.265625 -2.679688 C 2.320312 -2.09375 1.519531 -1.320312 1.519531 -0.160156 C 1.519531 1.519531 2.953125 2.378906 4.335938 2.378906 Z M 4.101562 -3.152344 C 3.414062 -3.8125 3.191406 -4.300781 2.457031 -4.9375 L 4.636719 -5.210938 C 5.445312 -5.308594 6.132812 -5.335938 6.269531 -5.011719 C 6.605469 -4.164062 4.625 -3.414062 4.101562 -3.152344 Z M 4.101562 -3.152344 "/></g></g></g><g fill="#03466e" fill-opacity="1"><g transform="translate(220.348968, 202.474674)"><g><path d="M 2.417969 -7.390625 C 2.703125 -7.390625 2.941406 -7.554688 3.042969 -7.789062 C 3.152344 -7.554688 3.390625 -7.390625 3.664062 -7.390625 C 4.039062 -7.390625 4.351562 -7.691406 4.351562 -8.066406 C 4.351562 -8.453125 4.039062 -8.75 3.664062 -8.75 C 3.390625 -8.75 3.152344 -8.589844 3.042969 -8.351562 C 2.941406 -8.589844 2.703125 -8.75 2.417969 -8.75 C 2.042969 -8.75 1.746094 -8.453125 1.746094 -8.066406 C 1.746094 -7.691406 2.042969 -7.390625 2.417969 -7.390625 Z M 0 0 C 0.835938 0 2.691406 -0.335938 3.589844 -0.6875 C 4.921875 -1.195312 5.921875 -2.195312 5.921875 -3.726562 C 5.921875 -5.398438 4.710938 -6.730469 3.203125 -6.730469 C 1.707031 -6.730469 0.5 -5.621094 0.5 -3.890625 C 0.5 -3.179688 0.871094 -1.90625 2.03125 -1.507812 L 2.03125 -1.472656 C 1.59375 -1.296875 0.761719 -1.097656 0 -1.097656 C -0.125 -1.097656 -0.25 -0.773438 -0.25 -0.546875 C -0.25 -0.324219 -0.125 0 0 0 Z M 3.203125 -2.007812 C 2.269531 -2.007812 1.53125 -2.742188 1.53125 -3.675781 C 1.53125 -4.597656 2.269531 -5.371094 3.203125 -5.371094 C 4.125 -5.371094 4.863281 -4.597656 4.863281 -3.675781 C 4.863281 -2.742188 4.125 -2.007812 3.203125 -2.007812 Z M 3.203125 -2.007812 "/></g></g></g><g fill="#03466e" fill-opacity="1"><g transform="translate(226.764365, 202.474674)"><g><path d="M 3.027344 2.441406 C 4.0625 2.257812 5 1.183594 5.546875 -0.0234375 C 5.933594 0 6.332031 0 6.757812 0 C 6.878906 0 7.003906 -0.324219 7.003906 -0.546875 C 7.003906 -0.773438 6.878906 -1.097656 6.757812 -1.097656 C 6.417969 -1.097656 6.246094 -1.109375 5.933594 -1.171875 C 5.972656 -1.410156 6.046875 -2.332031 6.046875 -2.59375 C 6.046875 -5.171875 4.675781 -6.371094 3.242188 -6.371094 C 1.707031 -6.371094 0.5 -5.035156 0.5 -3.429688 C 0.5 -1.222656 1.882812 -0.386719 4.214844 -0.125 L 4.25 -0.0390625 C 4.015625 0.460938 2.929688 1.058594 2.34375 1.109375 L 2.34375 1.332031 Z M 3.589844 -1.359375 C 2.355469 -1.359375 1.734375 -2.367188 1.734375 -3.316406 C 1.734375 -4.261719 2.492188 -5.035156 3.441406 -5.035156 C 4.375 -5.035156 5.183594 -4.238281 5.234375 -3.179688 C 5.273438 -2.367188 4.9375 -1.359375 3.589844 -1.359375 Z M 3.589844 -1.359375 "/></g></g></g><g fill="#03466e" fill-opacity="1"><g transform="translate(233.516093, 202.474674)"><g><path d="M 0.847656 -6.058594 C 1.121094 -6.058594 1.371094 -6.234375 1.472656 -6.46875 C 1.582031 -6.234375 1.820312 -6.058594 2.09375 -6.058594 C 2.46875 -6.058594 2.78125 -6.371094 2.78125 -6.742188 C 2.78125 -7.117188 2.46875 -7.429688 2.09375 -7.429688 C 1.820312 -7.429688 1.582031 -7.253906 1.472656 -7.019531 C 1.371094 -7.253906 1.121094 -7.429688 0.847656 -7.429688 C 0.472656 -7.429688 0.175781 -7.117188 0.175781 -6.742188 C 0.175781 -6.371094 0.472656 -6.058594 0.847656 -6.058594 Z M 0 0 C 1.609375 0 2.929688 -1.070312 2.929688 -2.617188 L 2.941406 -5.796875 L 1.445312 -5.371094 L 1.71875 -2.40625 C 1.769531 -1.570312 0.960938 -1.097656 0 -1.097656 C -0.125 -1.097656 -0.25 -0.773438 -0.25 -0.546875 C -0.25 -0.324219 -0.125 0 0 0 Z M 0 0 "/></g></g></g></svg>